<?xml version="1.0" standalone="no"?>
<!DOCTYPE svg PUBLIC "-//W3C//DTD SVG 20010904//EN"
 "http://www.w3.org/TR/2001/REC-SVG-20010904/DTD/svg10.dtd">
<svg version="1.0" xmlns="http://www.w3.org/2000/svg"
 width="512.000000pt" height="512.000000pt" viewBox="0 0 512.000000 512.000000"
 preserveAspectRatio="xMidYMid meet">
<metadata>
Created by potrace 1.11, written by Peter Selinger 2001-2013
</metadata>
<g transform="translate(0.000000,512.000000) scale(0.100000,-0.100000)"
fill="#000000" stroke="none">
<path d="M2475 4009 c-92 -8 -155 -16 -205 -29 -19 -5 -48 -11 -65 -14 -16 -3
-43 -8 -60 -11 -16 -3 -52 -10 -80 -15 -27 -5 -61 -12 -75 -15 -14 -3 -38 -8
-55 -11 -16 -3 -64 -12 -105 -20 -41 -9 -84 -18 -95 -20 -11 -2 -31 -6 -45 -9
-27 -5 -83 -15 -115 -21 -11 -1 -67 -12 -125 -24 -58 -12 -116 -24 -130 -26
-14 -3 -59 -12 -100 -20 -41 -8 -86 -17 -100 -20 -14 -2 -36 -7 -50 -10 -14
-3 -36 -7 -50 -9 -14 -2 -81 -16 -150 -30 -69 -14 -138 -28 -155 -31 -30 -5
-270 -52 -309 -60 -12 -3 -32 -7 -46 -9 -24 -4 -111 -20 -155 -29 -70 -15
-121 -28 -151 -41 -31 -13 -34 -17 -34 -58 0 -43 2 -45 40 -61 35 -14 454
-102 575 -122 22 -3 43 -8 46 -10 3 -2 21 -6 40 -9 19 -3 122 -23 229 -45 107
-21 206 -41 220 -44 14 -2 56 -10 93 -18 l68 -13 -6 -50 c-3 -27 -7 -61 -10
-75 -3 -13 -7 -42 -10 -65 -3 -22 -8 -51 -10 -65 -3 -14 -7 -38 -9 -55 -3 -16
-7 -43 -10 -60 -3 -16 -7 -46 -10 -65 -3 -19 -14 -93 -25 -165 -19 -127 -31
-200 -37 -240 -3 -20 -12 -83 -19 -121 l-3 -22 376 2 c330 1 621 -7 717 -19
17 -2 61 -6 100 -10 38 -4 72 -8 75 -10 3 -2 30 -6 60 -10 88 -11 205 -53 236
-86 l27 -28 19 25 c18 22 81 60 118 69 8 3 48 13 88 24 40 10 76 19 80 20 18
1 120 13 147 17 114 16 607 23 863 13 l94 -4 -6 -240 c-7 -271 -17 -657 -19
-695 -4 -95 32 -132 134 -135 118 -3 157 34 153 142 -2 77 -14 445 -19 608 -6
187 -16 500 -20 642 -2 68 0 125 5 128 14 9 10 257 -5 275 -7 8 -15 35 -18 59
-3 28 -15 53 -32 71 -27 28 -27 31 -27 160 0 72 4 135 8 139 7 6 181 58 254
77 15 3 243 68 350 100 141 41 160 54 160 110 0 58 -19 68 -165 89 -22 4 -51
8 -65 10 -14 3 -56 9 -95 14 -96 14 -120 17 -275 40 -74 11 -155 23 -180 26
-25 3 -52 8 -60 10 -8 2 -44 7 -80 10 -36 4 -68 9 -71 10 -3 2 -25 6 -50 9
-76 10 -113 15 -149 21 -19 3 -48 7 -65 10 -16 2 -109 15 -205 29 -96 14 -191
27 -210 30 -19 3 -82 12 -140 21 -58 9 -118 17 -135 20 -91 12 -193 27 -215
31 -94 17 -330 24 -465 13z m1780 -832 c1 -113 -1 -124 -22 -150 -24 -30 -40
-74 -30 -84 4 -3 -1 -20 -10 -37 -12 -23 -16 -55 -16 -126 1 -52 0 -90 -2 -85
-7 16 -135 533 -135 543 0 5 17 14 38 20 104 32 167 48 172 45 3 -3 5 -59 5
-126z"/>
</g>
</svg>
