<svg xmlns="http://www.w3.org/2000/svg" version="1.1" xmlns:xlink="http://www.w3.org/1999/xlink" xmlns:svgjs="http://svgjs.com/svgjs" height="194.40983509488012" width="373.5199890136719"><defs id="SvgjsDefs13268"></defs><g id="SvgjsG13269" rel="mainfill" name="main_text" xmlns:name="main_text" transform="translate(48.04999017715454,-70.22016978793239)" fill="#444444"><path d="M29.20 151.86L28.67 151.86Q28.93 151.73 29.07 151.73L29.20 151.86M22.37 239.46Q22.37 239.87 21.77 239.67Q21.16 239.46 20.76 239.46L22.37 239.46M20.76 206.38L20.76 206.91L20.76 206.38M18.62 238.26L18.62 238.79L18.62 238.26M63.63 224.46L64.16 225.00L63.63 225.00Q63.63 224.60 63.43 224.46Q63.23 224.33 63.63 223.93L63.63 224.46M63.09 223.26Q62.96 223.12 62.42 223.12Q62.29 223.26 62.15 223.26Q62.15 223.79 61.95 224.13Q61.75 224.46 62.15 224.46Q62.15 224.86 61.82 224.66Q61.48 224.46 61.08 224.46Q60.68 224.73 60.81 224.80Q60.95 224.86 61.15 225.06Q61.35 225.27 61.55 225.53Q61.75 225.80 61.62 226.34L61.89 226.60Q62.15 226.87 62.56 226.87L62.15 226.87Q61.62 226.87 61.62 227.41L62.15 227.41Q62.15 227.68 61.89 227.94Q61.75 228.08 61.62 228.08L61.08 228.08Q61.08 228.61 61.35 228.61Q61.48 228.75 61.62 228.61L61.08 228.61Q61.08 229.02 61.15 229.35Q61.22 229.69 61.62 230.22Q61.22 230.22 61.42 230.29Q61.62 230.36 61.62 230.76Q60.55 230.76 60.55 230.22Q60.55 230.62 60.08 230.42Q59.61 230.22 60.01 230.22Q58.94 230.22 58.94 230.76L58.40 230.76Q58.80 231.29 59.47 231.36Q60.14 231.43 60.55 231.43Q60.55 231.96 61.62 231.96Q61.62 232.23 61.08 232.50Q60.81 232.63 60.55 232.63Q60.55 233.03 60.88 233.17Q61.22 233.30 61.62 233.70Q61.22 233.30 60.88 233.30Q60.55 233.30 60.55 233.70Q60.55 234.64 60.68 235.11Q60.81 235.58 61.62 235.98Q61.22 236.25 60.88 235.91Q60.55 235.58 60.55 235.98Q60.55 235.58 59.68 235.51Q58.80 235.45 58.40 235.45L58.40 235.98Q57.87 235.45 56.80 235.45Q56.13 235.45 56.13 235.98L56.80 235.98Q56.66 236.12 56.80 236.25Q56.80 236.38 57.33 236.38L56.80 236.38L56.39 236.38Q56.13 236.38 56.13 235.98Q55.86 236.25 55.86 236.72Q55.86 237.19 56.13 237.19Q55.86 237.19 55.86 237.72Q55.86 238.26 56.13 238.26Q55.86 238.66 55.79 238.26Q55.72 237.86 55.32 238.26Q54.79 237.72 53.71 237.72Q53.71 237.59 53.98 237.59Q54.12 237.72 54.25 237.72Q54.25 237.32 53.98 237.32Q53.71 237.32 53.71 237.72Q53.71 237.59 53.45 237.32Q53.31 237.32 53.18 237.19L52.64 237.19Q52.64 237.72 52.11 237.72L52.11 237.19Q51.97 237.32 51.97 237.45Q51.71 237.72 51.57 237.72Q51.84 237.45 51.77 237.45Q51.71 237.45 51.71 237.32Q51.57 237.32 51.57 237.19Q50.63 237.19 49.90 236.85Q49.16 236.52 48.49 237.19Q45.81 236.52 43.13 236.79Q40.45 237.05 38.04 236.38Q36.84 237.05 35.70 236.79Q34.56 236.52 33.35 237.19L31.21 237.19L30.14 237.19L29.20 237.19L28.67 237.19L23.84 237.19L22.91 237.19L20.76 237.19Q20.36 237.19 19.69 237.39Q19.02 237.59 18.62 237.19L18.62 237.72Q18.22 237.32 17.61 237.25Q17.01 237.19 16.74 237.19L16.74 237.72L17.01 237.72Q17.01 238.26 18.08 238.26Q18.08 239.20 19.22 239.06Q20.36 238.93 20.76 239.46L20.76 240Q20.36 239.60 19.62 239.53Q18.89 239.46 18.08 239.46L18.08 238.79Q17.28 238.39 16.81 238.26Q16.34 238.12 15.14 237.72L14.60 238.26L14.60 237.72L12.46 237.72Q12.06 237.72 12.26 237.52Q12.46 237.32 12.46 237.72Q12.06 237.32 11.39 237.25Q10.72 237.19 10.45 237.19Q11.12 237.99 11.92 238.46Q12.73 238.93 13.53 239.46Q13.13 239.46 12.73 239.06Q12.32 238.66 11.92 238.26L11.92 238.79Q11.52 238.39 11.39 238.12Q11.25 237.86 10.85 238.26Q10.85 237.86 10.38 237.72Q9.91 237.59 9.91 237.19L9.38 237.19Q9.38 236.52 9.44 236.85Q9.51 237.19 9.91 237.19Q9.64 236.92 9.44 236.79Q9.24 236.65 9.11 236.52L8.84 236.38Q7.77 236.38 7.77 235.98L7.64 236.12Q7.50 236.12 7.50 236.18Q7.50 236.25 7.23 235.98Q6.83 236.38 6.97 236.38L7.23 236.38Q6.83 237.05 6.70 236.52Q6.56 235.98 6.16 235.98L6.70 235.98L6.16 235.98Q4.96 235.58 4.55 234.91Q4.15 234.24 3.08 234.24L3.08 233.70L2.55 233.70Q2.95 233.70 2.75 233.64Q2.55 233.57 2.55 233.17L2.55 233.70Q2.14 233.30 2.08 233.17Q2.01 233.03 2.01 232.63Q1.21 232.10 1.27 231.29Q1.34 230.49 0.94 229.55Q0.94 228.88 1.21 228.01Q1.47 227.14 1.47 226.34Q1.07 225.27 1.34 223.86Q1.61 222.45 2.01 221.78Q2.01 220.44 2.34 218.84Q2.68 217.23 3.08 215.89Q3.48 214.28 3.55 212.54Q3.62 210.80 3.62 209.06Q4.02 208.39 4.09 207.85Q4.15 207.32 4.15 206.91Q4.42 206.51 4.29 206.11Q4.15 205.71 4.15 205.04Q4.15 205.17 4.29 205.04Q4.55 205.04 4.55 204.50L4.55 201.69Q4.55 200.62 5.09 200.08L5.09 197.67Q5.09 196.33 5.16 195.13Q5.22 193.92 5.63 193.25Q5.22 192.85 5.49 191.71Q5.76 190.57 6.16 189.63L6.16 188.56Q6.56 185.88 6.97 183.41Q7.37 180.93 7.77 178.25Q8.17 173.16 9.11 168.34Q10.05 163.51 10.45 158.69L10.45 158.29L10.45 158.69Q9.78 158.42 10.18 158.02Q10.18 157.89 10.45 157.75Q9.91 157.75 10.18 157.49Q10.18 157.35 10.45 157.22Q10.45 154.14 10.92 151.06Q11.39 147.98 11.39 144.63Q11.25 144.36 11.39 143.96Q11.39 143.29 11.92 143.29L11.92 145.03Q12.32 144.76 12.19 144.36Q12.06 143.96 12.46 143.29Q12.86 144.36 12.66 145.10Q12.46 145.83 12.46 146.77Q12.99 146.77 12.99 145.56Q13.40 145.16 13.26 144.56Q13.13 143.96 13.53 143.29L14.06 142.75L14.60 142.75Q14.60 143.15 14.33 143.69Q14.06 144.22 14.06 144.63Q14.60 144.63 14.60 143.29Q15.00 142.89 15.07 142.48Q15.14 142.08 15.14 141.68L15.14 142.22Q15.14 141.81 15.40 141.68Q15.67 141.55 15.67 141.01L15.67 142.22Q15.54 141.95 15.67 141.68Q15.67 141.14 16.21 141.68Q16.21 142.08 16.01 142.48Q15.81 142.89 16.21 143.29Q16.21 144.63 16.74 145.03L16.74 142.22L17.01 142.22Q16.88 142.08 17.01 141.95Q17.01 141.68 17.55 141.68Q17.95 142.08 17.82 142.48Q17.68 142.89 18.08 143.29L18.08 141.68Q18.49 142.08 18.35 141.88Q18.22 141.68 18.62 141.68L18.62 141.01Q19.02 141.01 19.16 141.34Q19.29 141.68 19.69 141.68L19.69 140.47Q19.69 140.88 19.76 141.01Q19.82 141.14 20.23 141.68L20.23 141.01Q20.63 141.95 20.63 142.48Q20.63 143.02 20.23 144.09L20.76 144.09L20.76 145.03L20.23 145.03L20.23 158.29L20.23 153.60Q20.63 151.19 20.70 148.31Q20.76 145.43 20.76 142.75L21.30 142.75Q21.70 142.35 21.57 141.88Q21.43 141.41 21.83 140.47L22.37 141.01Q22.77 142.35 22.84 143.42Q22.91 144.49 22.91 145.56L22.91 142.22Q22.91 142.08 23.17 142.08Q23.31 142.22 23.44 142.22L23.44 141.68Q23.84 141.68 23.84 142.22L23.84 141.68Q23.84 142.08 24.11 142.22Q24.38 142.35 24.38 142.75Q24.38 142.35 24.65 142.48Q24.91 142.62 24.91 142.22Q24.78 142.48 24.91 142.75Q24.91 143.29 25.45 143.29Q25.45 144.36 25.65 145.43Q25.85 146.50 25.45 147.31Q25.85 148.65 25.65 150.25Q25.45 151.86 25.45 153.07L25.45 154.81L25.45 157.22L25.45 156.55Q25.05 157.08 25.25 157.22Q25.45 157.35 25.45 157.75L24.91 157.75Q25.05 157.89 25.18 157.89Q25.45 158.16 25.45 158.29Q25.45 158.56 25.18 159.09Q24.91 159.63 24.91 160.43L24.91 162.84L24.91 163.38Q24.91 163.92 24.85 164.92Q24.78 165.92 24.38 166.73L24.38 167.80Q23.98 170.08 23.71 172.29Q23.44 174.50 23.44 177.18Q23.44 177.71 23.17 177.71Q23.04 177.85 22.91 177.71Q22.91 180.12 22.57 182.20Q22.24 184.28 21.83 186.96Q21.83 190.71 21.30 194.26Q20.76 197.81 20.76 201.69Q20.76 203.83 20.43 205.98Q20.09 208.12 19.69 210.26L19.69 212.67Q19.29 214.68 18.95 216.49Q18.62 218.30 18.62 220.58Q19.02 220.18 18.89 219.44Q18.75 218.70 19.16 218.70Q19.16 219.37 19.22 219.04Q19.29 218.70 19.69 218.70L19.69 219.51L19.16 219.51L19.16 220.04L19.69 220.04Q20.09 220.04 20.76 220.24Q21.43 220.44 21.83 220.04L22.37 220.04L22.91 220.04L23.44 220.04Q24.11 220.04 24.31 219.97Q24.51 219.91 24.91 219.51Q25.05 219.51 25.32 219.77Q25.32 219.91 25.45 220.04Q25.85 219.64 25.99 219.64Q26.12 219.64 26.52 220.04L26.52 219.51L27.59 219.51L28.13 219.51L31.21 219.51Q34.02 219.51 35.97 219.10Q37.91 218.70 40.72 218.70L42.86 218.70L45.41 218.70L45.95 218.70L50.37 218.70L52.11 218.70Q52.91 218.70 53.71 219.04Q54.52 219.37 55.32 218.70Q55.72 218.70 55.59 219.10Q55.46 219.51 55.86 219.51Q56.13 219.51 56.80 219.57Q57.47 219.64 57.87 220.04Q58.27 219.64 58.13 219.84Q58.00 220.04 58.40 220.04L58.40 220.58L59.47 220.58L58.94 220.58L59.47 220.58Q59.07 221.11 59.01 221.38Q58.94 221.65 58.94 221.25Q58.94 221.65 59.14 221.72Q59.34 221.78 58.94 221.78Q59.07 221.92 59.21 221.92Q59.47 222.18 59.47 222.32Q60.28 222.32 60.55 222.45Q60.81 222.59 61.62 222.32Q62.02 222.59 62.22 222.65Q62.42 222.72 63.09 222.72Q63.09 223.26 62.56 223.26L63.09 223.26M61.08 222.72L61.62 222.72L61.08 222.72M22.91 146.23L22.91 146.77Q22.91 146.23 23.44 146.23L22.91 146.23M20.76 145.03Q20.76 144.09 20.23 144.09Q20.23 144.63 20.76 145.03M20.23 141.68L20.23 142.22L20.23 141.68M20.23 158.29Q19.82 159.09 19.76 159.90Q19.69 160.70 19.69 161.77Q20.09 160.70 20.16 159.90Q20.23 159.09 20.23 158.29M12.46 153.07L12.46 153.60L12.46 153.07M6.16 233.17Q5.76 233.17 5.63 232.90Q5.49 232.63 5.09 232.63L4.55 232.63L4.55 233.70Q4.96 234.11 5.63 233.97Q6.30 233.84 6.70 234.24Q6.70 233.44 6.43 233.50Q6.16 233.57 6.16 233.17M10.45 153.07L10.45 154.81L10.45 153.07ZM91.89 167.80Q92.02 167.80 92.02 168.07L91.89 168.20Q92.02 168.20 92.02 168.07Q91.89 167.93 91.89 167.80M91.89 166.06L91.89 166.59L91.89 166.06M91.89 165.26L91.89 164.72L91.89 165.26L91.89 165.26M91.89 171.42L91.89 171.95L91.89 171.42M91.89 157.49L91.89 158.16Q91.49 158.16 91.69 158.09Q91.89 158.02 91.89 157.49M91.35 156.28L91.35 155.74L91.35 156.28M90.69 234.78Q90.28 234.78 90.42 235.04Q90.55 235.31 90.15 235.31Q90.15 234.91 90.42 234.78Q90.69 234.64 90.69 234.11L90.69 233.44Q91.22 233.97 91.22 234.37Q91.22 234.78 90.69 234.78M90.69 235.31L90.69 235.71L90.69 235.31M90.69 232.90Q90.28 232.90 90.48 232.83Q90.69 232.77 90.69 232.23L90.69 232.90M90.15 237.59L90.15 238.26L90.15 237.59M89.21 147.31Q88.54 146.77 88.48 146.64Q88.41 146.50 88.41 146.10L88.41 145.43Q88.41 145.97 88.81 146.37Q89.21 146.77 89.21 147.31M88.41 180.53Q88.01 180.53 88.01 179.86Q88.27 179.86 88.21 179.92Q88.14 179.99 88.41 180.53M87.47 232.90L87.47 232.23L87.47 232.90M86.93 224.33Q86.53 223.93 86.73 223.52Q86.93 223.12 86.93 222.45L86.93 224.33M79.57 235.71Q79.03 235.71 79.03 235.31L79.57 235.71M79.57 238.26Q79.17 238.26 79.10 238.12Q79.03 237.99 79.03 237.05Q79.43 237.45 79.30 237.86Q79.17 238.26 79.57 238.26M79.03 237.59Q78.36 237.59 78.36 237.05L79.03 237.59M75.15 237.59L75.15 236.65Q75.55 236.65 75.35 236.92Q75.15 237.19 75.15 237.59M74.61 144.36L74.08 144.36L74.61 144.36M74.61 232.23Q74.34 232.36 74.34 232.23Q74.08 232.23 74.61 231.70L74.61 232.23M71.40 146.64L71.40 146.10Q71.40 145.70 71.80 146.10Q71.66 146.23 71.53 146.23Q71.40 146.37 71.40 146.64M71.40 147.31L71.40 146.64Q71.53 146.64 71.53 147.04Q71.53 147.17 71.40 147.31M71.40 146.64L71.40 147.31Q70.73 147.31 70.73 146.90Q70.73 146.50 71.40 146.10L71.40 146.64M70.19 232.90L70.19 231.03Q70.46 231.03 70.32 231.70Q70.19 232.36 70.19 232.90M67.91 230.36Q67.91 230.89 67.65 230.69Q67.38 230.49 67.38 231.03L67.38 229.82Q67.24 229.95 67.38 230.09Q67.38 230.36 67.91 230.36M91.35 155.74Q91.35 155.34 91.02 154.81Q90.69 154.27 90.69 153.87L90.69 153.33Q90.69 152.93 90.48 152.80Q90.28 152.66 90.69 151.99Q90.69 153.07 91.02 153.87Q91.35 154.67 91.35 155.74M89.21 149.72Q90.28 155.61 90.22 161.50Q90.15 167.40 90.15 173.83L90.15 175.57L90.15 181.46L90.15 182.40L90.15 184.54L90.15 184.01Q89.61 184.01 89.88 184.28Q89.88 184.41 90.15 184.54Q90.15 186.96 89.88 188.76Q89.61 190.57 89.61 192.45Q90.02 191.11 90.02 189.57Q90.02 188.03 91.35 187.09Q90.02 189.77 90.08 193.05Q90.15 196.33 90.15 199.14Q89.61 199.68 89.61 199.41Q89.48 199.41 89.61 199.14L89.61 199.68L90.15 199.68Q89.75 200.22 89.68 200.35Q89.61 200.48 89.61 200.89L89.61 201.69L89.61 202.23Q89.61 201.82 89.81 202.09Q90.02 202.36 89.61 202.63Q89.75 205.57 89.61 208.52Q89.48 211.47 89.28 214.48Q89.08 217.50 89.01 220.44Q88.94 223.39 89.21 226.34Q88.54 227.68 88.48 229.02Q88.41 230.36 88.41 232.23L88.01 232.23L88.41 231.70L88.01 231.70L88.01 232.23L87.47 232.23Q86.93 232.23 86.93 231.96Q86.80 231.83 86.93 231.70Q87.34 231.16 87.20 230.09Q87.07 229.02 87.47 228.08L86.93 228.75Q87.07 228.48 87.20 228.08Q87.47 227.27 87.47 226.87Q86.93 226.87 86.93 227.54Q86.80 227.81 86.93 228.08Q86.53 228.61 86.73 228.75Q86.93 228.88 86.93 229.28L86.93 228.75L86.93 229.28L86.93 230.36Q86.93 231.43 86.87 232.23Q86.80 233.03 86.40 233.44L86.40 231.70Q86.40 231.16 86.60 230.42Q86.80 229.69 86.40 229.28L86.40 227.41Q86.40 227.94 86.33 228.08Q86.26 228.21 85.73 228.75Q86.26 229.15 85.80 229.62Q85.33 230.09 85.73 231.03L85.73 230.36Q85.33 230.89 85.26 231.03Q85.19 231.16 85.19 231.70L85.19 232.90L85.19 233.44Q84.79 233.97 84.59 234.71Q84.39 235.45 83.45 235.71Q83.99 235.04 84.32 234.11Q84.66 233.17 84.66 232.23L84.12 232.23Q84.12 231.83 84.32 231.36Q84.52 230.89 84.12 230.36Q83.59 230.89 83.79 231.63Q83.99 232.36 83.45 232.90L83.45 231.03L83.45 228.08Q83.05 228.08 83.25 228.75Q83.45 229.42 83.45 229.82Q83.45 230.22 82.98 230.69Q82.51 231.16 82.51 231.70L82.51 237.05L82.51 235.71Q82.11 235.71 82.25 236.38Q82.38 237.05 81.98 237.05L81.98 235.71L81.44 235.31Q81.44 234.37 81.64 233.50Q81.84 232.63 81.44 231.70Q81.84 230.22 81.64 228.95Q81.44 227.68 81.44 226.34Q80.91 226.74 81.17 227.81Q81.31 228.35 81.44 228.75Q81.44 229.55 81.17 230.02Q80.91 230.49 81.44 231.03L80.77 231.03Q81.31 231.96 81.04 232.77Q80.77 233.57 80.77 234.11Q80.77 234.64 80.71 234.37Q80.64 234.11 80.24 234.11L80.24 235.31L80.24 235.71Q79.70 235.71 79.97 235.18Q80.24 234.64 80.24 234.11L79.57 234.11Q79.17 234.64 79.63 235.31Q80.10 235.98 79.57 236.65L79.57 235.31Q79.57 234.91 79.30 235.04Q79.03 235.18 79.03 234.78L79.03 235.71L78.90 235.58Q78.63 235.31 78.36 235.31Q78.36 235.58 78.29 235.78Q78.23 235.98 77.83 236.65Q77.83 235.98 77.56 235.78Q77.29 235.58 77.29 235.31Q77.02 235.58 77.16 236.38Q77.29 237.19 77.29 237.59Q77.02 237.59 77.09 237.99Q77.16 238.39 76.89 238.79Q76.89 237.86 77.02 237.12Q77.16 236.38 76.89 235.71L76.35 236.65L76.35 237.59Q75.82 237.19 75.75 236.79Q75.68 236.38 75.68 235.71Q75.28 235.71 75.21 236.05Q75.15 236.38 75.15 235.71L75.15 235.31Q74.61 235.31 74.61 234.11Q75.01 234.11 74.88 234.44Q74.74 234.78 75.15 234.78L75.15 232.90L75.15 231.70Q74.08 231.70 74.08 231.03Q73.54 231.03 73.47 231.43Q73.41 231.83 73.41 232.23L73.41 231.70Q73.00 231.70 73.14 232.03Q73.27 232.36 72.87 232.90Q72.87 231.96 73.07 231.43Q73.27 230.89 72.87 230.36L72.33 231.03L72.33 231.70Q73.27 232.63 72.33 234.78Q72.74 234.78 73.07 235.18Q73.41 235.58 73.41 235.31Q73.94 235.58 73.74 236.12Q73.54 236.65 74.08 236.65L74.08 235.31Q74.08 235.58 74.28 236.18Q74.48 236.79 74.08 237.05L74.08 237.59L73.41 237.59Q73.41 237.19 73.14 236.79Q72.87 236.38 72.87 235.71L72.87 236.65L72.87 235.71Q72.47 236.38 72.67 237.12Q72.87 237.86 72.87 238.79Q72.74 238.53 72.74 238.26Q72.60 237.99 72.60 237.79Q72.60 237.59 72.33 237.59L72.33 232.90Q71.93 233.30 72.13 234.44Q72.33 235.58 72.33 236.65L71.80 235.71Q71.53 234.51 71.46 233.17Q71.40 231.83 71.40 230.36L70.59 229.82Q70.32 229.82 70.19 229.35Q70.06 228.88 69.65 229.28Q69.65 228.88 69.45 228.48Q69.25 228.08 69.65 228.08Q69.12 227.54 69.12 227.01Q68.99 226.60 69.12 226.34Q69.12 219.91 69.65 214.21Q70.19 208.52 70.19 202.23Q70.19 201.82 70.39 201.69Q70.59 201.56 70.59 200.89L70.59 196.20L70.59 194.86L70.59 191.24Q70.59 191.11 70.73 190.97Q70.99 190.71 71.40 190.71L70.59 190.71Q71.26 186.02 71.33 182.13Q71.40 178.25 71.40 173.16Q71.66 170.88 71.73 168.60Q71.80 166.33 71.80 163.51L71.80 156.28Q71.80 154.00 71.73 152.13Q71.66 150.25 71.40 148.38L71.80 148.38L71.80 147.31Q71.66 147.17 71.80 146.90Q71.80 146.64 72.33 146.10Q72.33 146.50 72.40 146.64Q72.47 146.77 72.87 147.31Q72.87 146.10 73.41 146.10Q73.54 146.23 73.67 146.23Q73.81 146.37 73.94 146.37Q74.08 146.37 74.08 146.64L74.08 144.89L74.61 144.89L74.61 144.36L74.61 144.89Q75.01 144.89 75.41 145.50Q75.82 146.10 76.35 146.10Q76.49 144.89 76.35 144.09Q76.22 143.29 76.02 142.62Q75.82 141.95 75.62 141.34Q75.41 140.74 75.68 140.07Q75.68 140.88 76.08 142.15Q76.49 143.42 76.89 144.89L76.89 144.36L76.89 145.43L77.29 145.43L77.29 144.36L77.29 144.89L77.29 144.36Q77.42 144.63 77.56 144.63Q77.83 144.89 77.83 144.36Q77.83 144.89 78.09 144.63Q78.23 144.63 78.36 144.36L78.36 145.43Q78.36 144.36 79.03 144.36L79.03 145.43L79.03 144.89Q79.43 144.49 79.30 144.69Q79.17 144.89 79.57 144.89L79.57 144.36L79.57 143.02Q79.57 143.15 79.70 143.29Q79.97 143.55 80.24 143.55L80.24 143.02Q80.10 143.15 80.24 143.29Q80.24 143.55 80.77 143.55L80.77 143.02Q81.44 143.02 81.44 144.36L81.44 146.10Q81.84 145.56 81.64 145.16Q81.44 144.76 81.44 144.36Q81.58 144.36 81.84 144.63Q81.84 144.76 81.98 144.89Q82.38 146.23 82.51 147.24Q82.65 148.24 82.92 148.91L82.92 147.98L82.92 147.31Q82.92 146.37 82.72 145.10Q82.51 143.82 82.51 142.35Q82.78 142.89 82.72 143.29Q82.65 143.69 82.92 144.36L82.92 144.89Q83.32 144.89 83.18 144.69Q83.05 144.49 83.45 144.89Q84.12 144.89 84.12 146.10Q83.99 145.97 84.12 145.83Q84.12 145.56 84.66 146.10L85.19 146.10Q85.06 145.83 85.06 145.43Q84.93 145.16 84.93 144.89Q84.93 144.63 84.66 144.36Q85.33 144.36 85.60 144.63Q85.73 144.76 85.73 144.89Q87.07 148.51 87.27 152.26Q87.47 156.01 87.47 160.70L87.47 169.14Q87.47 173.56 87.54 177.98Q87.60 182.40 88.01 186.42Q87.47 186.42 87.47 186.82Q87.34 186.96 87.47 187.09L87.47 197.27Q87.47 203.70 86.93 210.33Q86.40 216.96 86.40 223.39L86.40 226.34Q86.40 226.87 86.00 226.87Q85.86 227.01 85.73 226.87L86.00 227.14Q86.26 227.41 85.73 227.41Q85.46 227.54 85.46 227.81Q85.19 228.21 85.73 228.75L85.73 227.41L85.73 228.08Q86.93 226.87 86.40 226.87Q86.93 226.87 86.93 226.34Q86.93 225.80 87.20 224.93Q87.47 224.06 87.47 223.39Q87.07 223.39 87.27 223.26Q87.47 223.12 87.47 222.45Q87.47 218.97 87.74 215.02Q88.01 211.07 88.01 207.05Q88.01 204.23 88.07 201.22Q88.14 198.21 88.41 195.39Q88.41 194.19 88.27 192.92Q88.14 191.64 88.41 190.71L88.41 185.35L88.41 179.86L88.41 174.50L88.41 172.62L88.41 170.75L88.41 170.08L88.41 169.14L88.41 162.31L88.41 161.77L88.41 158.16L88.41 157.89Q88.41 157.49 88.01 157.49Q88.14 157.49 88.14 157.22Q88.14 157.08 88.01 156.82L88.01 150.25Q87.60 150.25 87.47 149.52Q87.34 148.78 86.93 148.38Q87.34 148.11 87.14 147.31Q86.93 146.50 86.93 146.10Q86.80 146.37 86.93 146.37Q86.93 146.64 87.47 146.10L87.47 147.31Q87.87 148.51 88.01 150.19Q88.14 151.86 88.41 153.33Q88.41 152.26 88.34 151.73Q88.27 151.19 88.01 150.25L88.41 150.25Q88.41 149.18 88.34 148.11Q88.27 147.04 88.01 146.10Q88.14 146.37 88.27 146.50Q88.41 146.64 88.41 146.90L88.41 147.31Q89.08 147.84 89.14 148.44Q89.21 149.05 89.21 149.72M77.29 145.43L77.29 144.89L77.29 145.43M89.61 193.79L89.61 193.12L89.61 194.32Q89.75 194.32 89.75 194.05Q89.61 193.92 89.61 193.79M89.21 164.18L89.21 162.31L89.21 161.77L89.21 158.69Q88.54 157.75 88.81 156.62Q89.08 155.48 88.41 154.40L88.41 156.82L88.41 158.69Q88.54 158.69 88.81 158.83Q89.21 159.23 89.21 159.36L89.21 161.24Q89.21 162.44 88.81 163.78Q88.41 165.12 88.41 166.59Q88.41 167.53 88.81 168.60Q89.21 169.68 89.21 170.08Q89.21 170.61 88.88 171.35Q88.54 172.09 89.21 172.62Q88.54 172.62 88.94 173.29L89.21 173.83L89.21 165.26L89.61 165.26Q89.35 165.26 89.35 164.72Q89.35 164.18 89.61 164.18L89.21 164.18M89.21 176.77Q88.54 176.77 88.54 178.11Q88.54 179.45 89.21 180.53L89.21 176.77M89.21 182.40L88.94 182.94Q88.68 183.34 89.21 183.34L89.21 182.40M85.19 173.16Q85.60 172.22 85.46 171.28Q85.33 170.35 85.73 169.14L85.73 164.18Q85.33 163.65 85.46 162.98Q85.60 162.31 85.19 162.31L85.19 173.16M85.73 161.24Q85.33 160.83 85.33 161.04Q85.33 161.24 85.73 161.24M85.19 173.83Q85.19 174.10 85.46 174.36Q85.60 174.50 85.73 174.50Q85.60 174.36 85.60 174.23Q85.46 174.10 85.46 173.96Q85.46 173.83 85.19 173.83L85.19 173.83M85.73 145.43Q85.33 145.43 85.33 145.77Q85.33 146.10 85.73 146.10L85.73 145.43M85.73 159.36Q85.73 158.83 85.66 158.29Q85.60 157.75 85.19 158.69Q85.60 158.69 85.46 159.29Q85.33 159.90 85.73 159.90Q85.19 159.90 85.46 159.63Q85.46 159.50 85.73 159.36M85.19 176.77Q85.19 177.04 85.33 177.18Q85.33 177.44 85.19 177.44Q85.60 177.44 85.60 177.11Q85.60 176.77 85.19 176.77M85.19 185.35L85.19 185.88Q85.60 185.88 85.60 185.62Q85.60 185.35 85.19 185.35M85.19 186.42L85.19 187.76L85.19 188.29Q85.19 187.89 85.39 187.36Q85.60 186.82 85.19 185.88L85.19 186.42M85.19 194.86L85.19 195.39L85.19 194.86M85.19 195.39L85.19 196.20L85.19 195.39M85.19 189.90L85.19 190.71L85.19 189.90M85.19 202.23Q85.60 201.82 85.39 200.69Q85.19 199.55 85.19 199.14Q85.19 198.88 85.33 198.48Q85.33 197.81 85.19 197.81Q84.79 198.48 84.99 198.88Q85.19 199.28 85.19 199.68L85.19 199.14L85.19 200.35L85.19 202.23L85.19 202.23M85.19 207.58L85.19 203.30L85.19 202.23Q85.19 203.03 84.99 204.23Q84.79 205.44 85.19 206.24Q84.79 206.24 84.79 206.71Q84.79 207.18 85.19 207.58M85.19 196.73L85.19 197.27L85.19 196.73M85.19 192.45L85.19 191.91L85.19 192.45M85.19 193.12L85.19 193.79L85.19 193.12M85.19 230.36Q84.79 230.89 84.93 231.36Q85.06 231.83 84.66 232.23Q85.06 231.83 85.13 231.36Q85.19 230.89 85.19 230.36L85.19 230.36M84.66 207.58Q84.52 207.85 84.66 208.12Q84.66 208.66 85.19 208.66Q84.79 208.39 84.93 207.99Q85.06 207.58 84.66 207.58M84.66 208.66Q84.66 209.33 84.72 209.46Q84.79 209.59 85.19 209.99Q85.19 209.73 84.93 209.19L84.66 208.66M84.66 212.41L84.66 211.07L84.79 210.80Q84.79 210.66 84.86 210.46Q84.93 210.26 84.66 209.99L84.66 215.49Q84.26 215.89 84.26 216.22Q84.26 216.56 84.66 216.56Q84.66 215.75 84.46 214.55Q84.26 213.34 84.66 212.41M84.66 218.97L84.66 217.09Q84.26 217.09 84.26 218.03Q84.26 218.97 84.66 218.97M84.12 221.51Q84.39 221.25 84.39 220.91Q84.39 220.58 84.52 220.31Q84.52 219.91 84.66 219.51Q84.26 220.18 84.19 220.58Q84.12 220.98 84.12 221.51M84.12 223.39Q84.12 223.12 84.26 222.72Q84.26 222.05 84.12 222.05Q84.12 221.92 84.26 221.78Q84.26 221.51 84.12 221.51L84.12 223.39M84.12 226.34L84.12 225.00L84.12 226.34M84.12 226.87L84.12 229.82L84.12 229.28Q84.12 229.15 84.39 228.88Q84.52 228.88 84.66 228.75Q84.12 228.21 84.12 228.48Q83.99 228.61 84.12 228.75Q84.12 228.21 84.32 227.54Q84.52 226.87 84.12 226.87M82.92 150.92Q82.92 151.32 82.78 151.66Q82.65 151.99 82.92 151.99L82.92 150.92M80.77 143.55Q80.37 143.55 80.37 144.22Q80.37 144.89 80.77 144.89L80.77 143.55M80.24 231.03L80.24 230.36L80.24 231.03M80.24 232.90L80.24 232.23Q79.70 232.23 79.70 232.57Q79.70 232.90 80.24 232.90M77.29 147.31L77.29 146.10Q76.62 146.10 77.29 147.31M72.33 147.98Q72.33 148.24 72.27 148.04Q72.20 147.84 71.80 147.31Q71.80 147.57 72.07 147.84Q72.20 147.98 72.33 147.98M90.15 150.92L90.15 151.46L90.15 150.92M89.61 240.13Q89.35 239.73 89.68 239.00Q90.02 238.26 89.61 238.26L89.61 237.59Q90.02 238.12 89.95 238.93Q89.88 239.73 89.21 240.13L89.61 240.13M88.01 178.52L88.01 177.98L88.41 177.98L88.41 179.19Q88.14 179.19 88.21 178.85Q88.27 178.52 88.01 178.52M88.01 181.06Q88.27 181.33 88.14 181.33Q88.01 181.33 88.01 181.06M86.93 225.67Q86.53 225.67 86.67 225.60Q86.80 225.53 86.40 225.00L86.93 225.00Q86.93 225.53 86.73 225.60Q86.53 225.67 86.93 225.67M81.44 234.78Q80.91 234.78 81.11 234.44Q81.31 234.11 80.77 234.11Q80.91 234.11 81.31 234.51Q81.44 234.64 81.44 234.78M73.41 233.44Q73.41 233.97 73.67 234.37Q73.94 234.78 73.41 234.78L73.41 233.44L73.41 233.44M74.61 233.44Q74.21 233.97 74.41 234.44Q74.61 234.91 74.61 235.31Q74.08 235.31 74.08 234.78Q73.94 234.51 74.08 234.11Q73.54 234.11 73.81 233.57Q73.94 233.30 74.08 232.90L74.08 232.23Q74.08 232.90 74.61 232.90L74.34 233.03Q74.21 233.17 74.61 233.44ZM95.64 151.06L96.18 151.06L96.18 151.86L95.64 151.86L95.64 151.06M95.64 153.87L96.18 153.87L95.64 153.87M100.06 154.67Q100.06 155.07 100.13 155.14Q100.20 155.21 100.87 155.21L100.87 155.88Q100.20 155.34 100.13 155.21Q100.06 155.07 100.06 154.67M107.96 140.74L109.17 140.74Q108.77 141.14 108.37 141.01Q108.10 140.88 107.96 140.74M111.18 141.55Q110.64 142.08 109.51 142.08Q108.37 142.08 107.96 141.55Q108.37 140.88 109.24 141.21Q110.11 141.55 111.18 141.55M128.06 229.82Q128.59 229.82 128.59 229.28Q128.59 229.69 128.66 230.29Q128.73 230.89 129.40 231.83Q129.40 231.56 129.26 231.56Q129.13 231.56 129.00 231.43Q128.73 231.43 128.59 231.29Q128.59 230.76 128.53 230.62Q128.46 230.49 128.06 229.82M129.40 213.48L129.40 212.81L129.40 213.48L129.40 213.48M130.74 196.33Q130.74 196.87 130.67 196.93Q130.60 197.00 129.93 197.00Q129.93 196.87 130.07 196.73Q130.47 196.33 130.74 196.33L130.74 196.33M129.93 197.81Q130.60 197.81 130.27 198.01Q129.93 198.21 129.93 197.81M130.74 194.19L130.74 194.99Q130.07 194.99 130.07 194.59Q130.07 194.19 130.74 194.19M130.74 192.85L130.74 192.18L130.74 192.85M130.74 190.04L130.74 190.84L130.74 190.04M130.74 188.83L130.74 189.50L130.74 188.83M130.74 179.99L131.27 179.99L130.74 179.99M131.27 182.53L131.27 183.34Q130.87 183.34 130.87 182.94Q130.87 182.53 131.27 182.53M131.27 180.53Q130.87 180.53 131.07 180.46Q131.27 180.39 131.27 179.99L131.27 180.53M131.27 179.19L131.27 177.85L131.27 177.18L131.27 179.19M131.27 175.03L131.27 174.50Q131.81 174.50 131.54 174.77L131.27 175.03M131.27 168.34Q131.00 168.07 131.00 167.67Q130.74 166.86 131.27 166.86L131.27 168.34M131.27 170.21L131.27 168.87Q131.94 168.87 131.54 169.27Q131.41 169.54 131.27 169.68Q132.08 170.21 131.54 170.21Q131.41 170.35 131.27 170.21M132.61 218.97L132.61 219.51Q132.08 219.51 132.34 219.24Q132.34 219.10 132.61 218.97L132.61 218.97M132.61 212.81L132.61 218.97L132.61 212.81M132.61 212.00L132.61 211.47Q132.75 211.47 132.75 211.74Q132.61 211.87 132.61 212.00M133.95 177.85Q134.09 177.85 134.09 178.25Q133.95 178.52 133.95 178.65L133.95 179.19L133.95 178.65L133.95 177.85M133.95 188.03L133.95 187.49Q134.35 187.49 134.35 187.76Q134.35 188.03 133.95 188.03M134.49 179.99L134.49 179.19L134.49 179.99M158.46 163.51L161.81 163.51Q160.88 164.05 160.47 163.78Q160.07 163.51 158.46 163.51M167.71 163.51L165.56 163.51Q166.23 162.84 166.64 163.18Q167.04 163.51 167.71 163.51M185.12 150.52L185.92 150.52L185.12 150.52M94.30 153.87L94.84 153.20L95.64 153.20Q95.64 153.74 95.17 153.80Q94.70 153.87 94.30 153.87M96.18 152.53Q96.31 152.40 96.58 152.26Q96.98 151.86 96.98 152.53Q96.71 152.40 96.58 152.26Q96.18 152.13 96.18 152.53M97.52 153.87L97.52 153.20L97.78 153.47Q98.19 153.87 98.19 153.20L98.19 153.87L98.86 153.87Q98.86 153.33 98.79 153.60Q98.72 153.87 98.19 153.87Q98.19 153.60 98.45 153.33Q98.59 153.20 98.86 153.20L99.53 153.20L99.53 153.87L100.87 153.87L100.87 153.20Q100.87 153.47 101.00 153.60Q101.00 153.87 100.87 153.87L101.40 153.87L101.40 153.20Q101.00 152.66 100.87 152.86Q100.73 153.07 100.06 152.53L98.86 152.53L100.06 152.53Q99.66 151.99 99.66 151.93Q99.66 151.86 100.06 151.86L99.53 151.86Q99.66 151.86 99.93 151.73Q100.46 151.46 100.87 151.06L100.06 151.06Q99.53 151.86 99.53 151.32Q99.39 151.19 99.53 151.06Q99.53 150.92 100.20 150.92Q100.46 151.06 100.87 151.06Q100.20 150.65 99.73 150.59Q99.26 150.52 98.19 150.52Q98.19 149.85 98.45 149.78Q98.72 149.72 98.19 149.72L99.53 149.72L99.53 150.52Q99.66 150.52 99.93 150.12Q99.93 149.98 100.06 149.72L100.06 150.52Q100.73 149.85 100.87 149.78Q101.00 149.72 101.40 149.72Q101.80 149.72 101.67 149.38Q101.54 149.05 101.94 149.05Q101.54 148.38 101.20 148.65Q100.87 148.91 100.87 148.24Q101.27 148.24 101.33 148.04Q101.40 147.84 101.40 148.24L101.40 147.71Q101.80 147.71 102.67 147.77Q103.54 147.84 104.62 148.24L104.62 147.71L104.62 147.17Q104.62 147.71 105.02 147.44Q105.15 147.44 105.42 147.17L105.42 146.37Q105.82 147.04 105.96 146.70Q106.09 146.37 106.63 146.37L105.96 146.37Q107.03 146.37 107.56 146.70Q108.10 147.04 108.50 146.37L108.50 147.17Q108.50 146.50 108.90 146.84Q109.30 147.17 109.84 147.17Q111.85 147.57 113.99 147.44Q116.14 147.31 117.61 147.71L117.61 147.17Q119.08 147.57 120.42 147.44Q121.76 147.31 122.83 147.71Q123.50 147.31 123.70 147.51Q123.91 147.71 124.84 147.71Q123.91 147.31 123.24 147.44Q122.57 147.57 121.49 147.17L118.95 147.17L114.39 147.17Q113.99 147.17 114.13 147.10Q114.26 147.04 113.86 146.37Q113.86 146.64 113.99 146.77Q113.99 147.17 113.86 147.17Q112.79 146.50 112.12 146.43Q111.45 146.37 110.51 146.37L109.84 146.37L109.17 146.37L109.17 145.70Q108.77 146.10 108.37 145.97Q108.10 145.83 107.96 145.70L105.96 145.70L107.30 145.70L106.63 144.89L107.96 144.89Q107.96 144.63 107.83 144.63Q107.70 144.63 107.56 144.49Q107.43 144.49 107.30 144.36L105.42 144.36Q105.42 143.69 106.09 143.62Q106.76 143.55 107.30 143.55Q107.83 143.55 108.23 143.35Q108.63 143.15 109.17 143.55Q109.17 143.15 108.77 143.09Q108.37 143.02 107.96 143.02L106.63 143.02Q107.70 142.35 108.23 142.28Q108.77 142.22 109.84 142.22L109.84 143.02Q110.91 142.35 111.38 142.28Q111.85 142.22 112.52 142.22Q111.85 141.68 111.72 141.88Q111.58 142.08 111.18 141.55Q112.25 141.55 112.72 141.48Q113.19 141.41 113.86 140.74L111.18 140.74L111.72 140.21Q113.46 140.88 115.20 140.21Q117.07 140.21 119.62 140.14Q122.16 140.07 124.17 139.40L124.17 140.21L128.06 140.21L128.59 140.21L129.40 140.21L129.93 140.21Q130.60 139.54 130.80 139.87Q131.00 140.21 132.08 140.21Q132.88 140.21 133.08 140.41Q133.28 140.61 133.95 140.21Q134.35 140.61 134.82 140.41Q135.29 140.21 135.83 140.21Q136.36 140.21 137.17 140.41Q137.97 140.61 138.37 140.21L138.37 140.74Q140.38 140.74 142.66 140.81Q144.94 140.88 146.81 141.55Q146.81 140.88 146.88 141.14Q146.94 141.41 147.61 140.74Q148.69 141.41 149.89 141.48Q151.10 141.55 152.17 141.55Q154.04 141.55 156.39 141.61Q158.73 141.68 161.14 142.22Q161.68 142.22 162.08 141.95Q162.48 141.68 162.48 142.22L163.15 142.22L165.56 142.22L169.05 142.22L170.92 142.22L171.59 142.22L176.15 142.22L178.02 142.22L179.36 142.22L180.03 142.22L181.24 142.22Q182.31 142.22 183.18 141.95Q184.05 141.68 185.12 142.22Q184.72 142.22 184.65 142.28Q184.59 142.35 184.59 143.02Q184.99 143.02 185.52 143.09Q186.06 143.15 186.46 143.55L187.26 144.36L185.92 143.55L185.12 143.55Q185.12 144.09 185.52 144.22Q185.66 144.36 185.92 144.36Q185.52 144.36 184.99 144.63Q184.72 144.76 184.59 144.89L183.78 145.70Q182.98 144.49 181.91 145.70L181.24 145.70Q181.10 145.56 180.83 145.43Q180.30 145.16 180.03 145.70L179.36 145.70L180.03 145.70L177.49 145.70L177.49 144.89Q176.82 145.97 176.35 145.56Q175.88 145.16 175.34 145.70L172.93 145.70Q172.93 146.23 172.46 145.97Q171.99 145.70 171.59 145.70L165.56 145.70Q165.30 145.70 165.03 145.56Q164.49 145.30 164.49 144.89L163.69 145.70L161.14 145.70L161.14 144.89Q160.74 144.89 160.88 144.96Q161.01 145.03 160.61 145.70L160.61 144.89L160.61 145.70L160.61 144.89L160.61 145.70L159.27 145.70L159.27 144.89L154.04 144.89Q154.58 144.89 154.91 144.96Q155.25 145.03 155.25 145.70Q155.92 145.03 156.05 145.30Q156.19 145.56 156.59 144.89Q156.59 145.56 156.66 145.63Q156.72 145.70 157.13 145.70L155.25 145.70L150.03 145.70Q150.03 145.03 150.36 145.30Q150.70 145.56 150.03 144.89Q150.70 144.89 150.76 145.23Q150.83 145.56 150.83 144.89L151.37 144.89Q151.10 144.63 150.76 144.69Q150.43 144.76 150.16 144.76Q149.76 144.89 149.49 144.89L147.61 144.89Q146.94 144.89 145.87 144.69Q144.80 144.49 144.27 144.89Q144.27 144.49 144.00 144.49Q143.73 144.49 143.73 144.89L143.73 144.36Q143.06 144.76 142.86 144.56Q142.66 144.36 141.59 144.36L141.59 144.89Q142.26 144.89 142.59 144.96Q142.93 145.03 142.93 145.70Q143.60 145.70 143.66 145.36Q143.73 145.03 143.73 145.70Q143.73 145.03 143.80 145.30Q143.86 145.56 144.27 144.89L144.27 145.70L144.94 145.70Q145.47 145.70 146.01 145.97Q146.54 146.23 147.61 145.70L148.15 145.70L148.95 145.70L150.83 145.70Q152.30 145.70 153.44 145.77Q154.58 145.83 156.05 146.37Q157.93 145.83 160.94 146.10Q163.96 146.37 166.37 146.37L167.71 146.37L170.25 146.37L172.13 146.37L173.47 146.37L176.68 146.37Q176.82 146.50 177.08 146.64Q177.49 147.04 177.49 146.37Q177.89 147.04 178.42 146.70Q178.96 146.37 179.36 146.37Q179.90 146.37 180.30 146.43Q180.70 146.50 180.70 147.17Q180.83 147.17 181.10 146.77Q181.10 146.64 181.24 146.37L181.24 147.17L182.58 147.17Q184.05 147.57 185.72 147.51Q187.40 147.44 187.80 148.24L187.80 149.05L185.92 149.05L185.92 149.72Q185.26 149.18 185.12 149.11Q184.99 149.05 184.59 149.05L184.59 149.72L183.78 149.72Q182.84 149.18 181.97 149.45Q181.10 149.72 180.70 149.72Q181.10 150.39 181.97 150.45Q182.84 150.52 183.78 150.52L183.25 150.52Q183.65 150.92 184.18 150.72Q184.72 150.52 185.12 150.52Q185.12 150.92 185.59 150.99Q186.06 151.06 186.46 151.06Q186.73 151.19 187.13 151.32Q187.80 151.73 187.80 151.06Q187.80 151.59 188.07 151.32Q188.20 151.19 188.47 151.06Q188.87 151.59 188.74 151.73Q188.60 151.86 188.47 151.86Q187.93 151.86 187.80 152.19Q187.67 152.53 187.26 152.53Q187.26 153.07 187.60 152.80Q187.93 152.53 188.47 152.53Q188.47 153.07 188.80 153.20Q189.14 153.33 189.14 153.87L188.47 153.87Q187.53 154.54 186.13 154.27Q184.72 154.00 183.25 154.67Q183.25 155.61 183.65 155.41Q184.05 155.21 185.12 155.21Q184.85 155.21 185.05 155.34Q185.26 155.48 185.52 155.61Q185.92 155.74 186.46 155.88Q186.46 156.55 186.19 156.28Q185.92 156.01 185.92 156.68Q185.92 156.01 185.86 156.28Q185.79 156.55 185.12 155.88Q185.12 156.55 185.05 156.21Q184.99 155.88 184.59 155.88L185.12 156.68L184.59 156.68L182.58 156.68Q183.11 157.08 183.31 157.15Q183.51 157.22 184.59 157.22L185.12 157.22L185.12 158.02L184.85 157.75Q184.59 157.49 184.59 158.02Q184.32 158.29 184.18 158.29Q183.78 158.56 183.78 158.02L183.78 158.56L183.25 158.56L183.25 159.36Q183.38 159.36 183.51 159.50Q183.78 159.76 183.78 160.03Q183.38 160.03 183.11 160.16Q182.58 160.43 182.58 160.83Q182.31 160.70 182.17 160.57Q181.91 160.30 181.91 160.83Q181.91 161.24 182.24 161.24Q182.58 161.24 182.58 160.83L182.58 161.37Q182.58 162.04 182.98 161.71Q183.38 161.37 183.78 161.37Q183.38 162.04 182.91 162.11Q182.44 162.17 181.91 162.17L180.70 162.17L180.70 162.71Q180.16 162.71 179.70 163.04Q179.23 163.38 178.83 162.71L178.02 162.71L177.22 162.98Q176.55 163.25 176.15 162.71Q175.48 163.38 175.28 163.78Q175.07 164.18 174.14 164.18L174.14 164.72L173.47 164.72Q173.47 165.12 173.74 165.39Q173.87 165.52 174.14 165.52L162.48 165.52Q162.22 165.52 162.08 165.39Q161.81 165.12 161.81 164.72Q160.88 165.39 159.20 165.12Q157.53 164.85 156.05 165.52Q154.98 164.45 154.04 165.52Q154.04 164.85 153.37 164.85Q152.70 164.85 152.70 165.52L152.70 164.72L152.70 166.06Q152.70 166.46 152.84 166.86Q153.11 167.53 153.37 167.53Q152.84 169.14 153.04 171.08Q153.24 173.02 152.70 174.50L152.70 182.00Q152.70 191.78 152.37 201.62Q152.04 211.47 151.37 220.31Q151.37 221.78 151.43 224.39Q151.50 227.01 152.17 228.48Q152.17 229.15 152.10 229.95Q152.04 230.76 151.37 231.29Q152.04 230.76 151.50 230.69Q150.96 230.62 151.37 230.62Q150.83 230.62 150.83 229.55Q150.70 229.02 150.83 228.48L150.83 227.01Q150.83 220.98 151.10 214.42Q151.37 207.85 151.37 201.15Q152.04 198.07 152.10 194.99Q152.17 191.91 152.17 188.83L152.17 184.68L152.17 181.20Q152.17 180.26 152.24 179.39Q152.30 178.52 152.70 177.85Q152.70 174.23 152.64 170.81Q152.57 167.40 152.17 164.72Q152.17 165.39 151.77 164.99Q151.50 164.85 151.37 164.72Q152.04 165.39 152.10 165.79Q152.17 166.19 152.17 166.86L151.37 166.86L151.37 169.68L151.37 171.01Q151.50 170.88 151.63 170.61Q152.04 170.21 151.37 170.21Q152.04 171.28 152.10 173.23Q152.17 175.17 152.17 177.18Q151.77 176.77 151.50 176.24Q151.37 175.97 151.37 175.84Q150.96 176.24 151.50 176.77Q152.04 177.31 151.37 177.85Q151.37 178.11 151.50 178.25Q151.63 178.65 152.17 178.65Q151.50 179.72 151.77 180.59Q152.04 181.46 151.37 182.53Q152.04 189.37 151.43 196.60Q150.83 203.83 150.83 210.66Q150.16 216.29 149.96 220.71Q149.76 225.13 150.83 229.82Q150.16 230.49 150.03 230.96Q149.89 231.43 149.49 231.83L149.49 229.82Q149.09 229.82 149.29 230.62Q149.49 231.43 149.49 231.83L149.49 233.97L148.95 233.97L148.95 234.64L148.15 234.64Q147.61 234.64 147.61 233.97L147.61 234.64Q148.02 233.57 147.88 232.63Q147.75 231.70 148.15 231.29Q147.75 231.29 147.68 232.30Q147.61 233.30 147.61 233.97Q146.94 235.04 147.21 235.98Q147.48 236.92 146.81 237.32L146.28 236.79Q145.74 237.19 145.61 237.72Q145.47 238.26 144.94 238.79Q144.94 238.12 144.27 238.12L144.27 233.17Q143.86 233.17 144.06 232.83Q144.27 232.50 144.27 231.83Q143.86 231.83 143.80 232.57Q143.73 233.30 143.73 233.97L142.93 233.97L142.93 235.45Q142.52 235.45 142.66 235.38Q142.79 235.31 142.39 234.64Q141.72 235.31 141.59 236.05Q141.45 236.79 141.05 236.79Q140.65 236.79 140.58 237.52Q140.52 238.26 140.52 238.79L140.52 238.12Q140.25 238.12 139.85 238.53Q139.71 238.66 139.71 238.79Q139.71 237.72 140.11 237.19Q140.52 236.65 140.52 235.98Q140.25 235.71 140.11 235.78Q139.98 235.85 139.85 235.85L139.71 235.98Q140.38 234.91 140.05 234.31Q139.71 233.70 139.71 232.63Q139.31 233.03 139.51 233.91Q139.71 234.78 139.71 235.45L139.18 235.45Q139.18 234.78 139.11 234.64Q139.04 234.51 138.37 233.97Q138.37 234.51 138.64 235.31Q138.91 236.12 137.84 236.79Q137.84 237.86 138.10 238.46Q138.37 239.06 138.37 240.13Q137.97 239.73 137.84 238.79Q137.70 237.86 137.03 236.79L137.03 238.12L137.03 238.79Q136.63 238.26 136.56 237.72Q136.50 237.19 136.50 236.79L135.83 236.79Q136.36 235.71 136.16 234.78Q135.96 233.84 136.50 233.17Q135.96 232.77 135.89 231.63Q135.83 230.49 135.83 229.82Q135.29 231.29 135.56 232.97Q135.83 234.64 135.83 236.79L135.16 236.79Q134.62 236.12 134.82 234.91Q135.02 233.70 134.49 232.63L134.49 234.64Q134.09 234.64 134.22 234.31Q134.35 233.97 133.95 233.97Q133.95 235.04 134.02 236.05Q134.09 237.05 134.49 238.12L134.22 237.86Q133.95 237.59 133.95 238.12Q133.28 236.52 133.15 234.64Q133.01 232.77 132.61 231.29L132.61 230.62Q132.61 229.55 132.68 229.35Q132.75 229.15 133.15 228.48Q132.75 227.94 132.68 226.94Q132.61 225.94 132.61 224.33L132.61 225.67Q132.61 224.60 132.41 223.99Q132.21 223.39 132.61 222.32L132.61 223.12Q132.61 221.51 132.88 219.97Q133.15 218.43 133.15 216.83L132.61 216.83Q132.61 216.56 132.88 216.29Q133.01 216.16 133.15 216.16L133.15 206.51Q133.82 201.82 134.22 196.60Q134.62 191.38 135.16 186.69L135.16 181.20L135.16 176.37Q135.16 174.90 135.43 173.02Q135.69 171.15 135.16 169.68L135.16 171.68Q134.62 170.61 134.82 168.74Q135.02 166.86 134.49 164.72L134.49 166.06L134.49 164.18L133.95 164.18L133.95 168.34Q133.28 168.74 133.62 169.27Q133.95 169.81 133.95 170.21Q133.95 170.88 133.62 171.01Q133.28 171.15 133.95 171.68Q133.28 175.17 133.21 179.45Q133.15 183.74 133.15 187.49L133.15 190.04Q132.75 193.12 132.95 195.66Q133.15 198.21 133.15 201.69Q133.82 199.68 133.55 198.01Q133.28 196.33 133.95 194.19Q133.95 196.33 133.88 198.41Q133.82 200.48 133.15 202.49L133.15 206.51Q133.15 207.18 132.95 207.72Q132.75 208.25 133.15 209.33Q132.75 208.79 132.88 208.19Q133.01 207.58 132.61 206.51L132.61 209.99L132.61 209.33Q133.01 209.86 133.08 210.33Q133.15 210.80 133.15 211.47Q132.61 211.47 132.61 211.07Q132.48 210.93 132.61 210.66Q132.21 214.82 132.14 219.30Q132.08 223.79 132.08 228.48Q132.08 230.09 132.14 231.23Q132.21 232.36 132.61 233.97Q132.21 233.30 131.47 233.30Q130.74 233.30 130.74 233.97Q130.07 231.96 130.00 228.88Q129.93 225.80 129.93 223.66Q129.93 222.59 130.00 222.12Q130.07 221.65 130.74 220.98Q130.74 220.84 130.33 220.44Q130.07 220.31 129.93 220.31Q130.60 218.30 130.67 215.49Q130.74 212.67 130.74 209.99Q130.74 208.92 131.00 207.85Q131.27 206.78 131.27 205.31Q131.27 200.62 131.67 196.00Q132.08 191.38 132.08 186.69Q132.08 186.29 132.34 185.62Q132.61 184.95 132.61 183.87L132.61 180.53L132.61 171.68L132.61 168.34L132.61 164.18Q132.08 164.18 132.34 164.45Q132.34 164.59 132.61 164.72Q132.08 164.72 132.08 164.18Q132.08 164.59 132.01 164.45Q131.94 164.32 131.27 164.72L131.27 164.18L131.27 165.52Q131.27 164.85 131.21 164.72Q131.14 164.59 130.74 164.18L126.72 164.18Q125.78 164.18 125.24 163.92Q124.71 163.65 124.17 164.18L124.17 163.51Q123.10 163.51 122.63 163.78Q122.16 164.05 121.49 163.51L116.40 163.51L115.73 163.51Q115.33 163.51 115.27 163.45Q115.20 163.38 115.20 162.71L112.52 162.71L108.50 162.71L109.17 162.71L107.96 162.71L107.96 162.17L107.30 162.17Q106.22 162.17 105.35 162.11Q104.48 162.04 104.08 161.37L103.28 161.37Q102.21 160.97 101.40 160.57Q100.60 160.16 99.53 160.83Q99.53 160.16 99.59 160.10Q99.66 160.03 100.06 160.03L101.40 160.03Q101.00 160.03 101.47 160.10Q101.94 160.16 101.94 160.83Q101.94 160.16 102.00 160.16Q102.07 160.16 102.74 160.83L102.74 160.03Q102.74 159.50 102.27 159.43Q101.80 159.36 101.40 159.36Q102.87 159.36 104.28 159.70Q105.69 160.03 106.63 160.03Q107.16 160.03 107.23 160.37Q107.30 160.70 107.30 160.03Q107.83 160.70 108.90 160.77Q109.97 160.83 110.51 160.83Q113.46 161.24 115.80 161.30Q118.15 161.37 119.62 161.37L120.96 161.37L121.49 161.37L122.30 161.37Q121.63 161.37 121.96 161.71Q122.30 162.04 122.30 161.37Q122.70 162.04 123.57 162.11Q124.44 162.17 125.51 162.17L126.05 162.17L130.74 162.17L132.08 162.17L132.08 161.37Q131.41 162.04 130.60 161.71Q129.80 161.37 129.40 161.37Q128.73 160.97 127.99 161.50Q127.25 162.04 126.72 161.37L126.05 161.37L123.64 161.37L122.83 161.37Q121.76 161.37 120.89 161.30Q120.02 161.24 119.62 160.83L118.95 160.83L114.39 160.83L113.86 160.83Q112.79 160.83 112.12 160.43Q111.45 160.03 110.51 160.03Q109.97 160.03 109.17 160.37Q108.37 160.70 107.96 160.03L106.63 160.03Q105.69 159.50 104.42 159.36Q103.14 159.23 102.74 158.56L105.42 158.56L105.96 158.56L106.63 158.56Q105.69 158.16 104.62 158.09Q103.54 158.02 101.94 158.02L102.74 158.02Q101.67 157.35 100.53 157.22Q99.39 157.08 98.86 156.68Q99.39 156.68 100.26 156.75Q101.13 156.82 101.94 157.22Q101.94 156.82 102.74 156.95Q103.54 157.08 104.62 156.68L104.21 156.28Q103.95 156.15 103.75 156.01Q103.54 155.88 103.28 155.88L101.94 155.88Q101.94 155.21 100.87 155.21Q101.27 155.21 101.33 155.01Q101.40 154.81 101.40 155.21Q101.80 154.81 102.27 154.81Q102.74 154.81 102.74 155.21L104.08 155.21Q104.48 154.81 104.95 155.28Q105.42 155.74 105.42 155.21Q104.75 154.81 104.42 154.94Q104.08 155.07 104.08 154.67L101.94 154.67Q102.61 154.67 102.00 154.34Q101.40 154.00 101.40 154.67L101.94 154.67L100.06 154.67L99.53 154.67Q99.93 154.67 99.66 154.27Q99.39 153.87 98.86 153.87Q99.39 154.54 99.12 154.27Q98.86 154.00 98.86 154.67Q98.45 154.67 98.32 154.27Q98.19 154.14 98.19 153.87L96.98 153.87Q96.98 153.33 97.25 153.60L97.52 153.87M101.94 153.87L102.74 153.20L101.94 153.20Q101.27 153.20 101.67 153.60Q101.67 153.74 101.94 153.87M101.94 149.05L101.94 148.24L101.94 149.05M102.74 149.05Q102.74 148.38 102.67 148.38Q102.61 148.38 101.94 149.05L102.74 149.05M105.96 160.83Q104.88 160.83 104.68 160.43Q104.48 160.03 104.08 160.03Q104.08 160.70 104.28 160.43Q104.48 160.16 104.08 160.83Q103.81 160.57 103.95 160.50Q104.08 160.43 104.48 160.50Q104.88 160.57 105.29 160.70Q105.69 160.83 105.96 160.83M105.96 155.88L106.22 156.15Q106.63 156.55 106.63 155.88L105.96 155.88M107.30 160.83L106.63 160.83Q106.63 161.24 106.96 161.24Q107.30 161.24 107.30 160.83M107.30 159.36L107.96 159.36L107.96 158.56Q107.43 159.23 107.30 158.89Q107.16 158.56 106.63 158.56Q106.63 158.96 106.89 159.23Q107.03 159.36 107.30 159.36M109.84 143.55Q109.57 143.55 109.44 143.42Q109.17 143.42 109.17 143.55L109.84 143.55M111.72 143.55L110.51 143.55L111.05 143.82Q111.72 144.22 111.72 143.55M118.28 144.36L118.95 144.36Q118.41 143.69 117.68 143.96Q116.94 144.22 116.40 143.55Q116.40 143.82 116.27 143.96Q116.00 144.36 115.73 144.36Q115.73 143.69 116.00 143.62Q116.27 143.55 115.73 143.55L113.06 143.55Q113.06 144.22 113.12 143.89Q113.19 143.55 113.86 143.55L113.86 144.36Q114.26 143.69 114.39 144.02Q114.53 144.36 115.20 144.36L115.73 144.36Q116.27 144.36 117.01 144.02Q117.74 143.69 118.28 144.36M135.16 144.36L134.49 144.36L133.95 144.36L132.08 144.36Q132.08 143.69 131.34 144.02Q130.60 144.36 129.93 144.36L129.93 143.55Q129.53 143.55 129.06 143.89Q128.59 144.22 128.59 143.55Q128.46 143.55 128.33 143.69Q128.06 143.96 128.06 144.36Q128.06 143.69 127.99 143.62Q127.92 143.55 127.39 143.55Q127.52 143.55 127.66 143.69Q128.06 144.09 128.06 144.36Q127.52 144.36 127.45 144.02Q127.39 143.69 127.39 144.36Q127.39 144.09 126.99 143.69Q126.85 143.55 126.72 143.55L126.72 144.36Q126.45 144.36 126.32 144.22Q126.05 143.96 126.05 143.55Q125.51 144.36 125.51 143.82Q125.38 143.69 125.51 143.55L124.84 143.55L122.83 143.55Q122.30 143.69 121.90 143.82Q121.09 144.09 121.49 143.55L119.62 143.55L118.95 144.36L120.15 144.36L120.96 144.36L122.30 144.36L123.64 144.36L125.51 144.36Q127.39 144.36 128.93 144.43Q130.47 144.49 132.08 144.89L135.16 144.89Q136.23 144.49 137.43 144.69Q138.64 144.89 139.71 144.89L139.71 144.36L139.18 144.36Q138.91 144.63 138.64 144.63Q138.24 144.76 137.84 144.36Q137.17 144.76 136.43 144.56Q135.69 144.36 135.16 144.36M123.64 143.02L122.83 143.02Q122.83 143.42 123.24 143.42Q123.64 143.42 123.64 143.02M123.64 143.02Q123.64 143.42 123.84 143.42Q124.04 143.42 123.64 143.02M132.61 161.37L132.61 162.17L132.61 161.37L132.61 161.37M133.15 230.62L133.15 229.82Q132.88 230.09 132.88 230.22Q132.61 230.62 133.15 230.62L133.15 230.62M133.15 201.69Q133.15 202.36 132.95 203.23Q132.75 204.10 133.15 204.50L133.15 201.69M133.15 232.63L133.15 230.62L133.15 232.63M134.49 162.17Q134.09 162.17 134.22 161.77Q134.35 161.37 133.95 161.37L133.95 162.17L134.49 162.17M134.49 162.17L134.49 161.37L134.49 162.17M136.50 235.45Q136.76 235.45 136.76 235.65Q136.76 235.85 136.90 236.12Q136.90 236.52 137.03 236.79Q137.03 235.18 137.37 234.04Q137.70 232.90 137.03 231.83Q137.03 233.17 136.50 233.17Q136.76 233.44 136.70 233.91Q136.63 234.37 136.63 234.64Q136.50 235.18 136.50 235.45M141.05 144.89L141.05 144.36Q140.52 144.36 140.52 144.63Q140.38 144.76 140.52 144.89Q140.65 144.89 140.78 144.76Q141.05 144.76 141.05 144.89M147.61 219.51Q148.02 220.18 147.88 220.58Q147.75 220.98 148.15 220.98Q148.15 220.44 148.08 219.97Q148.02 219.51 147.61 219.51M148.15 218.97L148.15 214.15Q148.15 215.09 147.95 216.49Q147.75 217.90 148.15 218.97M148.15 212.81Q148.15 211.74 148.49 210.80Q148.82 209.86 148.15 209.33L148.15 212.81M148.95 207.32L148.95 206.51Q148.82 206.78 148.69 206.91Q148.42 207.32 148.95 207.32M148.95 203.16L148.95 205.84L148.95 203.16M148.95 195.66L148.95 194.99L148.95 195.66M148.95 195.66Q148.95 197.67 148.62 199.28Q148.28 200.89 148.95 202.49L148.95 195.66M149.49 194.19Q149.36 194.05 149.36 193.92Q149.09 193.65 148.95 193.65Q148.82 193.79 148.95 193.92Q148.95 194.19 149.49 194.19M152.17 163.51L151.37 163.51L151.37 164.18Q152.04 164.18 151.77 163.85Q151.50 163.51 152.17 163.51M152.17 162.71L152.04 162.58Q151.90 162.58 151.77 162.51Q151.63 162.44 151.37 162.71L152.17 162.71M152.17 162.71L152.70 162.71L152.17 162.71M160.61 164.18L163.69 164.18L165.03 164.18Q164.63 164.18 165.10 163.92Q165.56 163.65 165.56 164.18Q166.23 164.18 166.37 164.12Q166.50 164.05 166.90 163.51Q166.90 164.05 166.97 164.12Q167.04 164.18 167.71 164.18Q169.18 164.18 170.59 164.12Q171.99 164.05 173.47 163.51L173.47 164.18Q174.40 164.18 175.34 162.71Q173.87 163.38 172.46 163.71Q171.06 164.05 169.58 163.51Q170.12 163.51 170.52 163.45Q170.92 163.38 170.92 162.71Q170.39 163.38 169.18 163.04Q167.98 162.71 166.90 162.71L166.37 163.51L166.37 162.71Q165.30 162.71 164.09 163.04Q162.89 163.38 161.81 162.71L158.46 162.71L156.59 162.71L155.25 162.71Q154.85 162.71 154.11 162.51Q153.37 162.31 153.37 162.71Q153.91 162.71 154.38 163.11Q154.85 163.51 155.25 163.51L152.70 163.51L152.70 164.18L154.71 164.18L156.05 164.18L156.59 164.18L159.80 164.18L160.61 164.18M152.70 162.71L153.37 162.71L152.70 162.71M153.37 144.89L152.70 144.89L153.37 144.89M172.13 162.71Q171.73 162.71 171.66 162.78Q171.59 162.84 171.59 163.51Q171.73 163.51 171.86 163.38Q172.13 163.11 172.13 162.71M175.34 149.72Q174.94 149.18 174.14 149.45Q173.33 149.72 172.93 149.72L175.34 149.72M180.03 149.72Q179.09 149.72 177.75 149.38Q176.41 149.05 175.34 149.05L175.34 149.72Q176.41 149.72 177.75 150.05Q179.09 150.39 180.03 149.72M182.58 161.37L181.91 161.37L182.17 161.64Q182.58 162.04 182.58 161.37M186.46 152.53L185.92 152.53L186.46 152.53M157.93 145.70Q158.33 145.70 158.40 145.36Q158.46 145.03 158.46 145.70L158.46 144.89Q158.46 145.56 158.87 145.30Q159.27 145.03 159.27 145.70L157.93 145.70M103.28 147.17L104.08 147.17L104.08 147.71L103.28 147.71Q103.14 147.71 102.87 147.57Q102.61 147.57 102.41 147.51Q102.21 147.44 101.94 147.71L101.94 147.17Q102.07 147.44 102.34 147.44Q102.74 147.71 103.28 147.17L103.28 147.17M130.74 199.01Q130.07 199.01 130.00 198.94Q129.93 198.88 129.93 198.34L130.74 198.34L130.74 199.01M133.95 185.35L133.95 186.15Q133.95 185.75 134.22 185.48Q134.35 185.35 134.49 185.35Q134.09 185.35 134.22 185.68Q134.35 186.02 133.95 185.35M134.49 183.87Q133.95 183.87 134.22 183.61Q134.22 183.47 134.49 183.34L134.49 183.87M134.49 181.20L134.49 182.53Q134.09 182.53 134.09 181.87Q134.09 181.20 134.49 181.20M148.15 145.70Q148.82 145.70 148.89 145.36Q148.95 145.03 148.95 145.70L148.15 145.70M157.13 163.51L158.46 163.51L156.59 163.51L156.05 163.51Q156.46 163.51 156.59 163.45Q156.72 163.38 157.13 162.71Q156.72 163.25 156.86 163.38Q156.86 163.51 157.13 163.51M169.58 163.51Q169.18 163.51 168.65 163.78Q168.11 164.05 167.71 163.51L169.58 163.51ZM276.48 237.05L275.67 237.05Q275.67 236.65 275.74 236.79Q275.81 236.92 276.48 236.52L276.48 237.05M275.00 222.18Q274.47 222.18 274.67 221.92Q274.87 221.65 274.33 221.65Q274.60 221.65 274.87 221.92Q275.00 222.05 275.00 222.18M271.52 234.37Q270.98 234.37 271.18 234.31Q271.39 234.24 270.85 233.84L271.52 233.84L271.52 234.37M265.63 236.52L265.63 235.18Q265.89 235.45 265.76 235.65Q265.63 235.85 265.63 236.52M260.00 236.52Q260.27 236.52 260.54 236.79Q260.67 236.92 260.67 237.05Q260.67 238.12 260.33 237.52Q260.00 236.92 260.00 236.52M260.00 242.01Q260.80 243.08 260.47 243.08Q260.13 243.08 260.00 242.01M260.00 237.05Q260.00 236.65 259.40 236.12Q258.79 235.58 259.33 235.58Q259.87 235.58 259.93 236.12Q260.00 236.65 260.00 237.05M257.45 242.01Q256.79 242.01 256.72 241.54Q256.65 241.07 256.65 240.67Q257.32 241.07 257.39 241.21Q257.45 241.34 257.45 242.01M250.62 219.37Q249.95 220.04 249.95 219.71Q249.95 219.37 250.62 219.37M249.15 215.35L249.15 216.16Q248.61 216.16 248.82 215.75Q249.02 215.35 248.48 215.35L249.15 215.35M223.83 149.98Q223.57 148.91 223.77 148.38Q223.97 147.84 224.64 146.77L224.64 147.44Q224.64 147.98 224.23 148.78Q223.83 149.58 223.83 149.98M219.81 154.14Q219.81 153.60 220.22 152.86Q220.62 152.13 220.62 151.46Q221.02 150.39 221.15 149.38Q221.29 148.38 221.96 147.44Q222.49 146.37 222.69 145.83Q222.90 145.30 223.83 144.49Q223.83 145.30 223.63 145.70Q223.43 146.10 223.43 146.77L222.63 146.77Q222.09 148.78 221.29 150.45Q220.48 152.13 219.81 154.14M219.81 156.41L219.81 158.29Q219.28 157.75 219.55 157.08Q219.55 156.68 219.81 156.41M215.13 218.03L215.13 217.50L215.13 218.03M214.32 219.37Q214.32 220.04 214.26 220.18Q214.19 220.31 213.79 220.31Q213.92 220.31 214.05 220.18Q214.32 219.91 214.32 219.37M214.32 220.31Q213.92 220.58 214.05 220.78Q214.19 220.98 213.79 221.65L213.79 220.71Q213.65 220.71 213.79 220.58Q213.79 220.31 214.32 220.31M212.98 169.81Q213.38 169.81 213.25 169.41Q213.12 169.27 212.98 169.01Q213.65 168.60 213.38 167.87Q213.12 167.13 213.79 166.46Q213.79 167.93 213.38 169.34Q212.98 170.75 212.98 171.68L212.58 171.68L212.58 171.55Q212.58 171.28 212.98 171.28L212.98 169.81M212.98 172.49L212.98 173.29Q212.85 173.29 212.85 172.89Q212.85 172.76 212.98 172.49M212.58 173.96Q212.31 173.96 212.05 174.10Q211.64 174.36 211.64 174.63L211.64 173.96L212.58 173.96M211.64 169.01Q211.51 169.27 211.51 169.54Q211.38 169.81 211.38 170.01Q211.38 170.21 211.11 170.48L211.64 169.01M211.11 170.48L211.11 171.28L211.11 170.48M211.11 171.28Q211.11 171.42 210.97 171.55Q210.84 171.68 210.30 171.68L211.11 171.28M211.11 231.16L211.11 231.56Q210.44 231.56 210.77 231.49Q211.11 231.43 211.11 231.16M210.30 172.49L210.30 171.68Q210.97 171.68 210.57 172.09Q210.44 172.35 210.30 172.49M207.76 235.58L207.09 235.58L207.76 235.58L207.09 235.58Q207.09 235.18 207.36 235.18L207.76 235.18L207.76 235.58M202.13 231.56L202.13 232.50Q201.60 232.50 201.87 232.10Q201.87 231.83 202.13 231.56M202.13 235.58Q202.13 237.05 201.60 237.05Q201.60 236.65 201.87 236.12L202.13 235.58M198.11 218.70L197.71 218.70L197.71 218.03L197.71 218.70L198.11 218.70M196.64 219.37Q197.31 219.37 197.04 219.91Q196.91 220.18 196.64 220.31L196.64 219.37M195.30 224.33L195.30 223.52L196.11 223.52Q196.11 223.79 195.70 224.19Q195.44 224.33 195.30 224.33M270.18 235.18Q270.18 234.51 269.91 234.91Q269.64 235.31 269.64 235.58L268.71 235.58Q269.38 235.31 269.51 235.18Q269.64 235.04 269.64 234.37L269.64 235.18Q270.05 234.51 270.11 233.57Q270.18 232.63 270.18 231.56Q270.18 232.23 269.91 231.96Q269.78 231.83 269.64 231.56Q268.97 232.23 269.18 233.37Q269.38 234.51 268.71 235.18L268.30 235.18Q268.30 235.04 268.44 234.78Q268.71 234.24 268.71 233.84L268.30 233.84Q267.64 233.84 267.90 234.84Q268.17 235.85 267.50 236.52Q267.50 236.92 267.84 237.05Q268.17 237.19 267.50 237.86L267.50 237.05Q266.97 237.72 266.90 238.19Q266.83 238.66 266.83 239.33Q266.16 239.33 266.43 239.20Q266.70 239.06 266.03 238.39L266.03 239.87L266.03 234.37L266.03 233.84Q265.76 234.24 265.69 234.37Q265.63 234.51 265.63 235.18Q265.63 235.04 265.49 234.78Q265.09 234.37 264.69 234.37Q265.76 233.30 265.83 232.23Q265.89 231.16 265.63 229.69L265.63 228.88Q264.96 228.88 265.16 229.28Q265.36 229.69 264.69 229.69Q263.75 230.22 264.22 231.49Q264.69 232.77 264.69 233.84Q264.69 234.91 264.82 235.45Q264.96 235.98 265.63 237.05Q264.96 237.05 265.16 237.52Q265.36 237.99 264.69 238.39L264.69 237.86L264.69 238.39Q264.69 239.06 264.42 238.79Q264.29 238.66 264.29 238.39Q264.55 239.06 264.02 239.26Q263.48 239.46 263.48 239.87L263.88 239.46Q264.02 239.20 264.15 239.00Q264.29 238.79 264.29 238.39Q263.62 238.39 263.55 238.53Q263.48 238.66 263.48 239.33Q263.48 238.66 263.82 237.66Q264.15 236.65 263.48 235.58Q263.48 237.05 262.81 237.05Q262.14 237.72 261.94 238.06Q261.74 238.39 261.47 238.39Q261.47 238.66 261.34 238.93Q261.07 239.33 260.67 239.33Q260.67 238.66 260.74 238.46Q260.80 238.26 261.47 237.86Q260.94 237.32 260.87 236.58Q260.80 235.85 260.94 235.04Q261.07 234.24 261.07 233.30Q261.07 232.36 260.67 231.56Q260.13 232.63 260.74 234.04Q261.34 235.45 260.67 236.52Q260.13 235.45 260.07 234.51Q260.00 233.57 260.00 232.50L260.00 234.37Q259.46 233.97 259.40 233.57Q259.33 233.17 259.33 233.84L259.33 233.03Q259.87 231.96 259.80 230.69Q259.73 229.42 258.66 228.35L258.66 228.88L258.66 227.54Q257.99 228.61 258.33 229.62Q258.66 230.62 258.66 231.56Q257.99 231.56 258.33 231.49Q258.66 231.43 258.66 231.16Q258.26 231.16 257.99 231.43L257.86 231.56Q257.59 231.56 257.66 232.03Q257.72 232.50 257.45 232.50L257.45 231.56Q256.79 231.56 257.05 232.30Q257.32 233.03 256.65 233.03L256.65 232.50L256.65 233.03L255.98 233.03L255.98 231.56L255.18 231.56L255.18 231.43Q255.18 231.16 254.78 231.16L255.18 231.16Q254.91 230.49 254.71 229.95Q254.51 229.42 253.84 228.35Q253.84 227.68 253.64 227.27Q253.44 226.87 253.44 226.20Q253.57 226.47 253.57 226.60Q253.57 227.01 253.44 227.01Q252.77 223.93 251.76 220.84Q250.76 217.76 249.69 214.68Q248.21 214.68 248.41 215.75Q248.61 216.83 249.15 217.50Q249.55 217.90 249.62 218.03Q249.69 218.17 249.69 218.70Q249.55 218.57 249.55 218.43Q249.42 218.30 249.42 218.17Q249.42 218.03 249.15 218.03Q249.55 219.77 250.15 221.25Q250.76 222.72 251.03 224.33Q251.43 224.33 251.29 223.93Q251.16 223.79 251.03 223.52L251.83 223.52L251.83 224.33Q251.83 225.80 252.30 226.81Q252.77 227.81 253.44 228.88L253.44 228.35L253.44 229.69Q253.70 231.16 254.24 232.36Q254.78 233.57 254.78 235.18L255.18 235.18Q255.18 235.45 255.11 236.12Q255.04 236.79 254.78 237.86L254.78 237.05Q254.78 236.65 254.31 236.05Q253.84 235.45 253.84 235.18L253.84 235.45Q253.84 235.58 253.44 235.58L253.44 233.84Q253.44 232.10 252.97 230.76Q252.50 229.42 252.50 228.35Q251.96 227.68 251.90 227.54Q251.83 227.41 251.83 227.01Q251.83 226.34 251.43 225.87Q251.03 225.40 251.03 224.86Q249.95 222.45 249.02 219.64Q248.08 216.83 247.01 214.68L238.84 214.68L227.58 214.68Q226.91 214.15 226.78 214.42Q226.65 214.68 226.11 214.68Q226.11 215.22 225.71 215.22Q225.31 215.22 225.31 214.68L225.31 215.35Q225.04 215.35 224.90 215.22Q224.64 214.95 224.64 214.68Q223.97 215.22 223.83 215.02Q223.70 214.82 223.43 215.35Q221.69 215.35 220.62 215.69Q219.55 216.02 218.61 215.35L218.61 216.16L219.28 216.16L219.81 216.16Q219.81 216.56 218.61 216.56L218.61 217.50L218.61 216.56L217.94 217.50L219.28 217.50L217.94 217.50Q217.00 220.58 215.93 223.59Q214.86 226.60 213.79 229.69L213.79 230.36Q213.79 231.29 213.05 232.03Q212.31 232.77 211.64 233.84Q212.31 233.84 212.51 233.44Q212.72 233.03 212.98 233.03Q212.98 233.70 212.78 233.84Q212.58 233.97 212.58 234.37L211.64 234.37L211.11 235.58Q210.71 235.58 210.84 235.45L211.11 235.18Q211.11 234.51 211.38 234.37Q211.64 234.24 211.64 233.84L211.11 233.84Q211.11 234.24 210.71 234.84Q210.30 235.45 210.30 236.52Q209.90 236.92 209.43 237.05Q208.96 237.19 208.96 237.86Q208.96 237.19 208.63 237.79Q208.29 238.39 207.76 238.39Q207.22 237.99 207.49 237.86Q207.76 237.72 207.76 237.05Q208.96 237.05 208.96 235.58Q208.96 236.25 208.43 236.45Q207.89 236.65 208.43 237.05Q207.89 236.65 207.76 236.85Q207.62 237.05 207.09 237.05L207.09 236.52L207.76 236.52Q208.29 236.52 208.70 235.78Q209.10 235.04 209.77 234.37Q209.10 234.37 209.43 234.24Q209.77 234.11 209.77 233.03Q209.90 233.17 210.04 233.03Q210.30 233.03 210.30 232.50L211.11 232.50Q211.11 231.83 211.38 231.03Q211.64 230.22 211.64 229.69Q211.51 229.69 211.38 229.82Q211.11 230.09 211.11 230.36Q211.11 229.82 211.04 229.69Q210.97 229.55 210.30 228.88L211.11 228.35Q211.11 227.68 211.04 227.61Q210.97 227.54 210.30 227.54Q210.30 228.21 209.97 228.35Q209.63 228.48 208.96 228.88Q208.96 229.55 208.70 230.02Q208.43 230.49 208.43 231.16Q208.83 231.16 208.96 230.76Q209.10 230.36 209.77 230.36Q209.77 231.03 209.30 231.16Q208.83 231.29 208.43 231.56Q207.36 232.23 207.16 233.37Q206.96 234.51 206.29 235.18L205.62 235.18L206.29 235.18Q205.88 234.78 205.75 234.91Q205.62 235.04 205.62 235.18Q205.62 234.51 205.55 234.84Q205.48 235.18 204.81 235.18Q205.35 235.18 204.41 235.85Q203.47 236.52 202.94 236.52Q202.94 235.85 203.00 235.71Q203.07 235.58 203.61 235.58L202.94 235.58Q202.94 235.31 203.34 234.78Q203.74 234.24 204.28 233.84L203.61 233.84L203.61 233.03L202.94 232.50L202.94 231.16L202.13 231.56Q202.13 230.62 202.53 230.02Q202.94 229.42 202.94 228.35Q202.27 228.75 202.13 229.22Q202.00 229.69 201.60 229.69Q201.60 228.61 201.93 227.94Q202.27 227.27 202.94 226.20Q202.94 225.67 203.27 225.20Q203.61 224.73 203.61 224.33L203.61 223.52Q203.61 223.12 204.14 222.45Q204.68 221.78 204.28 220.71Q204.68 220.71 204.81 220.38Q204.95 220.04 205.62 219.37Q205.62 217.23 206.42 215.42Q207.22 213.61 207.76 212.14Q207.76 211.87 207.89 211.60Q208.03 211.33 208.09 211.13Q208.16 210.93 208.43 210.66Q208.16 210.66 208.09 210.80Q208.03 210.93 207.89 211.07Q207.76 211.20 207.76 211.33L207.76 210.66Q207.49 210.66 207.42 210.80Q207.36 210.93 207.22 211.07Q207.09 211.20 207.09 211.33Q207.09 212.00 207.16 212.07Q207.22 212.14 207.76 212.14Q207.49 212.00 207.36 211.87Q207.09 211.60 207.09 212.14L207.76 212.14L207.09 212.14L207.09 212.54Q206.69 212.54 206.42 213.08Q206.29 213.34 206.29 213.48Q205.75 213.88 205.62 215.09Q205.48 216.29 204.81 216.56Q205.48 216.56 205.15 216.69Q204.81 216.83 204.81 217.50L204.81 218.70Q204.41 218.70 204.28 219.04Q204.14 219.37 203.61 219.37L203.61 220.71Q203.07 221.78 202.94 222.72Q202.80 223.66 202.13 224.33L201.60 224.33Q201.60 225.27 201.53 225.60Q201.46 225.94 200.79 227.01Q200.79 227.14 200.93 227.27Q201.20 227.54 201.60 227.54Q201.33 227.54 200.93 227.94Q200.79 228.21 200.79 228.35Q200.39 228.75 200.32 229.62Q200.26 230.49 200.26 231.16Q199.59 231.43 199.25 231.63Q198.92 231.83 198.92 232.50Q198.25 232.50 198.52 232.83Q198.78 233.17 198.11 233.84L198.11 232.50Q198.25 232.50 198.52 232.36Q198.65 232.23 198.78 232.10Q198.92 231.96 198.92 231.56L198.11 231.56Q198.11 232.10 197.85 232.36L197.71 232.50Q197.04 232.50 196.77 232.77Q196.64 232.90 196.64 233.03Q196.24 234.64 195.70 235.31Q195.17 235.98 194.77 237.05Q194.77 236.65 194.70 236.58Q194.63 236.52 193.96 236.52Q194.63 235.85 194.70 235.45Q194.77 235.04 194.77 234.37L195.30 233.84L195.30 233.03L196.11 232.50Q196.51 231.43 196.57 231.09Q196.64 230.76 196.64 229.69L196.11 229.69Q196.51 228.61 197.11 227.54Q197.71 226.47 197.71 224.86Q198.65 224.46 198.85 223.59Q199.05 222.72 199.45 221.65Q199.32 221.78 199.19 222.05Q198.92 222.59 198.92 222.99Q198.92 221.92 199.65 220.91Q200.39 219.91 200.79 218.70Q201.46 216.16 202.67 212.47Q203.87 208.79 204.81 205.71Q204.95 205.71 205.08 205.57Q205.35 205.31 204.81 205.31Q205.48 204.64 205.82 204.17Q206.15 203.70 205.62 203.16L204.81 203.16L205.62 203.16Q206.15 202.09 206.29 201.15Q206.42 200.22 207.09 199.68Q206.42 199.68 206.02 199.95Q205.62 200.22 205.62 199.68Q205.75 199.68 206.02 199.55Q206.29 199.41 206.55 199.35Q206.82 199.28 207.09 199.01L207.09 198.48Q208.56 194.72 210.04 190.91Q211.51 187.09 212.58 183.61Q213.92 179.72 214.99 176.57Q216.06 173.43 217.14 169.81Q217.81 168.20 218.61 166.59Q219.41 164.99 219.81 162.31Q220.48 161.77 220.62 160.97Q220.75 160.16 221.15 159.50Q220.62 159.50 220.62 159.23Q220.48 159.09 220.62 158.96Q220.62 158.42 220.28 157.95Q219.95 157.49 220.62 156.82Q220.62 157.49 220.89 157.95Q221.15 158.42 221.15 158.96Q221.82 157.35 222.29 155.88Q222.76 154.40 223.43 152.66L223.83 152.66Q224.50 151.19 224.97 149.31Q225.44 147.44 226.11 145.56L226.11 145.97Q226.65 144.89 226.38 144.63Q226.11 144.36 226.11 143.96Q226.38 143.96 226.65 144.22Q226.78 144.36 226.78 144.49Q227.45 144.09 227.58 143.55Q227.72 143.02 227.99 142.62Q227.99 142.48 228.12 142.35Q228.25 142.22 228.79 142.62L228.79 141.81L228.79 143.15Q228.52 143.42 228.39 143.69Q227.99 144.09 227.99 144.49Q227.99 145.30 228.39 145.70Q228.79 146.10 228.79 146.77L228.79 145.97L228.52 146.50Q228.25 147.04 228.79 147.44Q229.33 145.97 229.46 144.83Q229.59 143.69 230.13 142.62L230.66 142.62L230.66 143.96L230.13 143.96L230.66 144.49Q230.66 144.09 230.80 143.55Q230.93 143.02 231.60 142.62L231.60 143.15Q231.87 142.75 231.40 141.95Q230.93 141.14 231.60 140.47Q231.60 141.55 232.14 142.48Q232.67 143.42 232.00 144.49Q231.74 145.30 231.67 145.70Q231.60 146.10 231.60 146.77Q231.87 145.83 232.34 144.76Q232.81 143.69 232.81 142.62Q232.81 142.48 232.94 142.22Q233.08 142.08 233.14 141.95Q233.21 141.81 233.48 141.81Q233.08 142.22 233.61 142.48Q233.88 142.62 234.15 142.62L233.88 142.89Q233.61 143.15 234.15 143.15Q234.68 142.08 234.88 141.61Q235.09 141.14 235.75 140.47L235.75 140.21Q235.75 139.94 236.16 139.94Q236.16 141.41 235.22 142.42Q234.28 143.42 234.82 144.49Q235.49 144.49 235.29 144.16Q235.09 143.82 235.75 143.15Q235.75 143.82 235.96 143.96Q236.16 144.09 236.16 144.49Q236.83 144.09 236.49 143.96Q236.16 143.82 236.16 143.15Q236.83 143.15 236.56 143.62Q236.29 144.09 236.96 144.49Q237.50 144.09 237.56 143.96Q237.63 143.82 237.63 143.15Q238.17 143.15 237.90 143.82Q237.76 144.22 237.63 144.49Q238.30 144.49 238.37 144.16Q238.43 143.82 238.43 143.15Q238.70 143.82 238.57 143.96Q238.43 144.09 238.43 144.49Q238.84 143.96 238.84 144.49L238.84 143.96Q239.37 143.69 239.64 143.96Q239.91 144.22 240.04 144.83Q240.18 145.43 240.18 146.17Q240.18 146.90 240.18 147.44Q240.18 146.90 240.24 146.37Q240.31 145.83 240.98 145.56Q240.98 145.83 240.64 147.04Q240.31 148.24 240.98 148.65Q241.51 147.71 241.25 147.10Q240.98 146.50 240.98 145.56Q241.51 145.83 241.31 147.04Q241.11 148.24 241.65 148.65Q241.65 149.72 242.05 149.92Q242.45 150.12 242.45 150.79Q242.59 150.79 242.59 151.19Q242.59 151.32 242.45 151.46Q243.93 153.47 245.06 155.95Q246.20 158.42 247.81 160.83Q246.87 161.91 247.41 162.64Q247.94 163.38 248.48 164.59Q248.48 164.85 248.82 164.99Q249.15 165.12 249.15 165.79Q249.15 166.86 249.55 167.33Q249.95 167.80 250.62 168.47Q250.62 168.87 250.82 169.74Q251.03 170.61 251.03 171.28Q251.03 171.68 251.43 171.68L251.83 171.68L251.83 172.49Q252.36 174.10 252.97 175.50Q253.57 176.91 253.84 177.98L253.84 178.52Q254.51 178.52 254.64 179.05Q254.78 179.59 254.78 179.86Q255.04 181.60 255.58 182.80Q256.12 184.01 256.65 185.48Q257.32 186.42 257.66 187.83Q257.99 189.23 258.66 190.30L258.66 190.71L258.66 191.51Q259.20 191.51 259.00 192.31Q258.79 193.12 259.33 193.12Q259.87 193.38 259.67 193.92Q259.46 194.46 260.00 194.46L260.67 194.46L261.47 194.86L260.67 194.86L261.47 194.86L261.47 196.33L261.88 196.33L262.81 196.33Q262.14 196.73 262.01 196.60Q261.88 196.47 261.88 196.33Q261.88 197.27 262.08 197.87Q262.28 198.48 263.48 198.48L262.81 198.48Q262.95 198.61 263.08 198.61Q263.08 198.74 262.81 199.01L262.81 198.48L262.81 199.01Q262.81 199.55 263.55 199.55Q264.29 199.55 264.29 199.01Q264.29 200.35 264.69 200.35L264.29 200.35L264.29 201.29L264.69 201.29Q265.09 201.29 265.16 201.49Q265.22 201.69 265.22 201.96Q265.22 202.23 265.36 202.43Q265.49 202.63 266.03 202.63L265.63 203.16L264.69 203.16Q264.69 203.70 265.02 203.77Q265.36 203.83 264.69 203.83L265.63 203.83L264.69 204.50Q264.96 204.37 265.09 204.23Q265.49 203.83 264.69 203.83Q264.69 204.37 265.02 204.44Q265.36 204.50 264.69 204.50L266.03 204.50Q265.89 204.50 265.76 204.64Q265.63 204.77 265.63 205.31L266.83 205.31L266.83 205.71Q266.16 205.71 265.76 206.04Q265.36 206.38 264.69 205.71L264.69 206.51Q265.36 206.51 265.89 206.78Q266.43 207.05 267.50 206.51Q266.97 207.05 267.17 207.52Q267.37 207.99 266.83 207.99Q267.37 207.99 267.50 208.05Q267.64 208.12 268.30 208.52Q267.64 208.52 267.17 208.25Q266.70 207.99 266.03 207.99Q266.70 209.06 267.10 209.93Q267.50 210.80 267.50 211.33L267.50 212.14Q267.50 212.00 267.64 211.87Q267.77 211.74 268.30 212.14L268.30 212.54Q268.30 212.14 268.71 212.14Q268.44 212.41 268.57 212.34Q268.71 212.27 268.71 212.54L268.30 212.54Q268.57 213.61 269.18 215.09Q269.78 216.56 270.18 218.03Q270.72 219.10 270.85 220.11Q270.98 221.11 271.52 222.18Q271.52 222.72 271.92 222.85Q272.19 222.99 272.46 222.99Q272.46 223.39 272.12 224.66Q271.79 225.94 272.46 227.01Q272.73 227.01 272.59 227.74Q272.46 228.48 272.46 228.88Q271.79 228.88 271.12 229.69Q270.45 230.49 271.52 231.16Q271.52 232.23 271.45 232.70Q271.39 233.17 270.85 233.84L270.85 233.03Q270.31 233.70 270.52 234.44Q270.72 235.18 270.18 235.18M272.46 227.54L272.06 227.94Q271.79 228.35 272.46 228.35L272.46 227.54M269.64 224.86Q270.05 225.40 270.11 225.87Q270.18 226.34 270.18 227.01Q270.18 226.34 270.11 225.87Q270.05 225.40 269.64 224.86M269.64 222.99Q268.97 224.06 269.31 224.26Q269.64 224.46 269.64 224.86Q270.05 224.46 269.85 223.93Q269.64 223.39 269.64 222.99M269.64 230.36L269.64 229.69L269.24 230.09Q268.97 230.36 269.64 230.36M268.30 213.48Q268.04 213.48 267.90 213.34Q267.50 213.21 267.50 212.54Q267.50 213.61 267.90 214.35Q268.30 215.09 268.30 216.16L268.71 216.16L268.71 214.68Q268.44 214.68 268.04 214.28Q267.64 213.88 268.30 213.48M268.30 225.53L268.30 226.20L268.30 225.53M268.30 230.36Q267.64 230.36 267.90 229.62Q268.17 228.88 267.50 228.88L267.50 229.69L267.50 232.50Q267.50 232.63 267.64 232.77Q267.90 233.03 268.30 233.03Q267.64 232.63 267.97 232.43Q268.30 232.23 268.30 231.56L267.50 231.56L268.30 230.36M267.50 212.54L267.50 212.14L267.23 212.41Q267.10 212.54 267.50 212.54M267.50 227.54L267.50 227.01Q266.83 227.01 266.83 227.54L266.03 227.54Q266.03 228.21 266.43 228.61Q266.83 229.02 266.83 229.69Q267.37 229.02 267.43 228.61Q267.50 228.21 267.50 227.54M266.83 211.33L267.50 211.33Q266.97 210.80 266.83 210.20Q266.70 209.59 266.03 209.33Q266.03 209.59 266.43 210.20Q266.83 210.80 266.83 211.33M266.83 215.35L266.83 216.16L266.83 215.35M266.03 214.68L266.83 214.68L266.03 214.68M266.03 208.52Q265.89 208.79 265.89 208.92Q265.89 209.33 266.03 209.33L266.03 208.52M265.63 212.14Q265.63 212.41 265.69 212.61Q265.76 212.81 266.03 213.48Q265.89 213.61 265.89 213.75Q265.89 214.01 266.03 214.01Q266.03 213.61 265.96 213.01Q265.89 212.41 265.63 212.14M265.63 228.35L265.63 227.54Q265.63 228.88 266.03 228.88L266.03 228.35Q266.03 228.08 265.89 228.08Q265.76 228.08 265.63 228.35M265.63 225.53Q265.89 225.53 265.83 225.80Q265.76 226.07 266.03 225.53L265.63 225.53M265.63 224.33L265.63 224.86Q265.76 224.73 265.76 224.60Q265.76 224.33 265.63 224.33M265.63 226.20Q264.96 226.87 265.29 227.01Q265.63 227.14 265.63 227.54L265.63 226.20M264.69 210.66Q264.69 211.20 264.82 211.27Q264.96 211.33 265.63 211.33Q265.63 211.20 265.49 211.07Q265.09 210.66 264.69 210.66M264.69 209.73L264.29 209.73Q264.55 209.73 264.49 210.46Q264.42 211.20 264.69 210.66L264.69 209.73M264.29 208.52Q264.29 209.19 264.35 209.26Q264.42 209.33 264.69 209.33Q264.29 209.33 264.29 208.92L264.29 208.52M263.48 201.29Q263.62 201.15 263.75 200.89Q264.02 200.35 263.48 200.35Q263.48 201.02 263.42 200.69Q263.35 200.35 262.81 200.35L262.81 201.29L263.48 201.29M260.00 231.56Q260.00 231.83 260.13 232.10Q260.27 232.50 260.67 232.50Q260.67 231.83 260.60 231.70Q260.54 231.56 260.00 231.56M259.33 227.54L259.33 228.35L259.33 227.54M247.81 209.73L247.01 209.73Q247.41 209.73 247.27 209.59L247.01 209.33Q247.01 208.79 246.74 209.06Q246.60 209.19 246.60 209.33L247.01 209.73L246.60 210.66L247.01 210.66L247.81 210.66L247.81 209.73M236.16 208.52L234.15 208.52Q232.27 208.52 230.20 208.92Q228.12 209.33 226.11 209.33L225.31 209.33Q225.31 208.66 224.90 208.99Q224.50 209.33 223.83 209.33L223.43 209.33Q223.43 209.59 223.57 209.66Q223.70 209.73 223.43 209.73L222.63 209.73Q222.36 209.73 222.23 209.86Q221.96 210.13 221.96 210.66Q222.49 210.66 222.63 210.33Q222.76 209.99 223.43 210.66L223.43 209.73Q223.43 210.40 223.50 210.20Q223.57 209.99 223.83 210.66Q224.50 209.99 225.11 209.99Q225.71 209.99 226.78 210.66L227.99 210.66L228.79 210.66L229.46 210.66L230.66 210.66L232.00 210.66L232.81 210.66L233.48 210.66Q233.61 210.40 233.75 210.26Q234.15 209.86 234.15 210.66Q234.68 210.66 234.75 210.33Q234.82 209.99 234.82 210.66L236.16 210.66L242.45 210.66Q242.59 210.93 242.92 210.80Q243.26 210.66 243.59 210.53Q243.93 210.40 244.19 210.33Q244.46 210.26 244.46 210.66L245.67 210.66Q245.67 209.99 245.40 209.59Q245.13 209.19 245.13 208.52L243.66 208.52L237.63 208.52L236.96 208.52L236.16 208.52M239.64 190.30L238.84 190.30Q238.84 189.63 238.63 189.10Q238.43 188.56 238.43 187.49L237.63 187.49Q238.30 189.63 239.10 191.71Q239.91 193.79 240.98 195.66L240.98 194.86Q240.98 193.79 240.31 192.78Q239.64 191.78 239.64 190.30M238.84 194.86Q238.84 195.53 239.24 195.26Q239.64 194.99 239.64 195.66Q239.64 194.05 239.04 192.65Q238.43 191.24 238.43 190.30L237.63 189.50Q237.63 188.43 236.89 187.16Q236.16 185.88 236.16 184.81Q235.75 184.28 235.75 183.87L235.75 183.61L235.75 184.01Q235.09 183.74 234.95 183.81Q234.82 183.87 234.82 183.61Q234.82 182.94 234.55 182.74Q234.28 182.53 234.82 182.13Q234.28 182.40 234.28 182.40Q234.15 182.40 234.15 182.13Q234.15 183.20 234.62 184.21Q235.09 185.21 235.75 186.29Q236.02 187.22 236.16 188.23Q236.29 189.23 236.96 190.30Q236.96 190.57 237.30 191.11Q237.63 191.64 237.63 192.31L236.96 192.31Q236.29 190.84 235.89 189.30Q235.49 187.76 234.82 186.29L234.82 186.69L234.68 186.55Q234.42 186.29 234.15 186.29L234.82 186.29Q234.82 185.62 234.75 185.55Q234.68 185.48 234.15 185.48Q234.15 184.95 234.08 184.48Q234.01 184.01 233.48 184.01L233.48 183.61L233.48 182.67L233.48 183.61Q232.94 182.53 232.81 181.53Q232.67 180.53 232.00 179.86Q232.00 180.93 232.07 181.73Q232.14 182.53 232.81 183.61L232.81 184.01Q232.14 182.94 232.00 182.33Q231.87 181.73 231.60 180.66L231.60 182.67Q230.93 182.27 230.80 181.73Q230.66 181.20 230.66 180.66Q229.73 181.73 230.20 182.87Q230.66 184.01 230.66 185.48Q231.33 185.48 231.13 185.88Q230.93 186.29 231.60 186.29Q231.60 187.22 231.87 187.83Q232.14 188.43 232.81 189.50Q232.14 189.50 232.07 189.23Q232.00 188.96 232.00 189.50Q232.14 189.50 232.41 189.63Q232.81 190.04 232.81 190.30Q233.34 191.24 233.14 191.84Q232.94 192.45 233.48 193.12L233.48 193.52Q234.01 193.52 233.81 193.65Q233.61 193.79 234.15 194.46Q233.08 192.85 232.41 190.84Q231.74 188.83 230.66 186.69L230.66 186.29Q230.26 185.62 230.13 184.74Q229.99 183.87 229.46 183.61Q229.46 183.87 229.73 184.41Q229.86 184.68 230.13 184.81Q229.59 184.81 229.79 184.41Q229.99 184.01 229.46 184.01L229.46 184.81L228.79 184.81Q228.79 185.88 228.45 186.35Q228.12 186.82 228.79 187.49L227.99 187.49L227.99 188.16Q227.72 189.77 226.91 191.17Q226.11 192.58 226.11 193.52L226.11 194.86Q226.24 194.86 226.38 194.99Q226.78 195.39 226.78 195.66L227.58 195.66L228.79 195.66Q229.86 194.99 231.13 195.60Q232.41 196.20 233.48 195.66L234.15 195.66L234.15 194.86L234.15 195.66L235.75 195.66L236.29 195.39Q236.42 195.26 236.42 195.33Q236.42 195.39 236.16 195.66Q236.83 194.99 237.63 195.26Q238.43 195.53 238.43 194.86L238.43 194.46L237.63 193.52L237.63 192.31L237.63 193.12Q238.30 193.12 238.37 193.45Q238.43 193.79 238.43 194.46L238.84 194.86M232.00 143.15L231.60 143.15Q231.60 143.82 231.67 143.89Q231.74 143.96 232.00 143.96L232.00 143.15M230.13 213.48L231.60 213.48L230.13 213.48M230.13 146.77Q230.13 146.10 230.40 145.70Q230.66 145.30 230.66 144.49Q230.26 145.30 230.20 145.70Q230.13 146.10 230.13 146.77M228.79 212.54L228.79 213.48Q228.79 212.81 229.06 213.08L229.46 213.48Q229.46 212.81 229.39 213.01Q229.33 213.21 228.79 212.54M229.46 213.48L230.13 213.48L230.13 212.54Q230.13 213.21 229.79 213.01Q229.46 212.81 229.46 213.48M228.79 148.11L228.79 147.44L227.99 148.11L227.99 150.79Q228.66 149.72 228.39 149.11Q228.12 148.51 228.79 148.11L228.79 148.11M228.79 179.86Q228.12 180.53 228.12 180.59Q228.12 180.66 228.79 180.66L228.79 179.86M227.99 182.13Q227.85 182.27 227.85 182.40Q227.85 182.67 227.99 182.67L227.99 182.13L227.99 181.33L227.99 182.13M227.58 149.98Q227.72 149.85 227.72 149.58Q227.72 149.05 227.58 148.65L227.58 149.98M227.58 184.01Q226.91 183.74 226.85 184.34Q226.78 184.95 226.78 185.48L226.11 186.29Q226.11 186.55 225.71 187.49Q225.31 188.43 225.31 189.50Q224.77 190.17 224.37 190.91Q223.97 191.64 224.64 192.31Q225.17 190.84 225.71 189.50Q226.24 188.16 226.78 186.29Q226.78 185.62 227.18 184.68Q227.58 183.74 227.58 182.67L227.58 184.01M224.64 158.96Q225.17 159.36 224.97 159.90Q224.77 160.43 225.31 160.43Q225.31 158.96 224.64 158.96M224.64 161.64L224.64 162.31L224.64 161.64M223.83 163.65Q223.70 164.05 223.70 164.32Q223.70 164.99 223.83 164.99Q223.83 164.72 224.17 164.52Q224.50 164.32 223.83 163.65M223.43 191.51Q223.83 191.51 223.83 191.11L223.83 190.71Q223.57 190.71 223.50 190.77Q223.43 190.84 223.43 191.51M223.43 162.31L223.43 162.98L223.43 162.31M211.64 197.14L212.58 197.14Q212.85 196.06 212.98 195.13Q213.12 194.19 213.79 193.52L213.79 193.12L213.79 192.31Q215.26 188.70 216.47 184.88Q217.67 181.06 219.28 177.98Q220.35 175.44 220.95 173.02Q221.56 170.61 222.63 168.47L222.63 167.67Q222.76 167.67 223.03 167.40Q223.43 167.00 223.43 166.46L222.63 166.46Q222.63 167.13 222.29 167.47Q221.96 167.80 221.96 168.47Q221.96 168.87 221.56 168.87Q221.15 168.87 221.15 168.47Q221.82 169.54 221.42 170.08Q221.02 170.61 220.62 171.28Q221.02 171.28 220.82 171.42Q220.62 171.55 220.62 171.28L220.62 171.68Q219.95 173.43 219.55 174.50Q219.14 175.57 218.61 175.84Q219.01 176.51 218.88 176.91Q218.74 177.18 218.61 177.31Q218.07 177.31 218.01 177.71Q217.94 178.11 217.94 178.52Q217.94 179.19 217.87 179.39Q217.81 179.59 217.14 179.86Q216.06 182.00 215.73 184.48Q215.39 186.96 214.32 188.83Q214.32 189.37 214.05 189.50Q213.79 189.63 213.79 190.30Q212.58 192.18 212.58 195.66Q211.91 196.20 211.78 196.33Q211.64 196.47 211.64 197.14M222.63 194.46Q222.63 193.79 222.69 193.45Q222.76 193.12 223.43 193.12Q222.76 193.12 222.69 193.45Q222.63 193.79 222.63 194.46M222.63 192.31L222.90 191.78Q223.16 191.24 222.63 190.71Q222.63 191.38 222.29 192.38Q221.96 193.38 221.96 194.46L221.96 193.52Q222.63 193.52 222.63 192.31M222.63 194.86L222.63 194.46L222.63 194.86M221.15 194.86Q221.15 195.53 221.22 195.19Q221.29 194.86 221.96 194.86L221.96 194.46Q221.56 194.46 221.29 194.72L221.15 194.86M215.80 215.35L215.13 215.35L215.80 215.35L215.80 215.35M215.13 217.50L215.13 216.56L214.32 216.56Q213.92 218.70 213.12 220.58Q212.31 222.45 211.64 224.86Q211.64 225.40 211.38 225.87Q211.11 226.34 211.11 227.01Q211.51 227.01 211.71 226.60Q211.91 226.20 212.58 226.20L212.58 225.53L212.58 224.86L212.58 224.33Q212.58 224.86 212.98 224.33Q213.65 222.32 214.46 220.51Q215.26 218.70 215.80 216.56Q215.26 216.56 215.46 216.69Q215.66 216.83 215.13 217.50M215.13 216.16Q215.13 216.42 215.19 216.29Q215.26 216.16 215.80 216.16L215.13 216.16M213.79 216.16L214.32 216.16L213.79 216.16M212.98 216.56L213.79 216.56Q213.12 218.17 212.38 219.57Q211.64 220.98 211.64 222.99L211.11 222.99Q211.24 222.99 211.24 223.26Q211.11 223.39 211.11 223.52L211.64 223.52Q212.31 221.38 212.72 219.77Q213.12 218.17 213.79 216.56Q213.79 216.29 213.72 216.29Q213.65 216.29 212.98 216.56M211.64 197.54L212.58 197.54L212.58 197.14L211.64 197.54M211.11 224.33Q210.44 224.73 210.10 225.53Q209.77 226.34 209.77 227.01Q210.17 226.34 210.64 225.53Q211.11 224.73 211.11 224.33M208.96 235.58Q209.63 235.58 209.70 235.71Q209.77 235.85 209.77 236.52Q209.77 235.85 210.04 235.45Q210.30 235.04 210.30 234.37Q209.90 233.97 210.04 234.57Q210.17 235.18 209.77 235.18Q209.77 235.31 209.63 235.45Q209.50 235.58 208.96 235.58M208.43 228.88Q208.83 227.81 208.96 226.87Q209.10 225.94 209.77 224.86Q208.43 227.14 208.43 228.88M207.76 209.73Q207.89 209.59 208.03 209.59Q208.43 209.59 208.43 209.73L207.76 209.73L208.43 209.73L208.96 209.33Q208.56 209.33 208.16 209.39Q207.76 209.46 207.76 209.73M208.43 206.51Q208.43 207.05 208.70 207.05Q208.96 207.05 208.96 206.51L208.43 206.51M207.76 229.69Q207.76 229.02 208.09 228.55Q208.43 228.08 208.43 227.01Q207.89 227.41 207.83 228.21Q207.76 229.02 207.76 229.69M207.76 210.66L208.43 210.66L207.76 210.66M207.76 230.36Q207.76 229.69 208.43 229.69Q208.16 229.69 208.09 229.82Q208.03 229.95 207.89 230.09Q207.76 230.22 207.76 230.36M206.29 231.56L206.29 233.03L206.55 232.77Q206.82 232.50 206.29 232.50Q206.96 231.83 207.02 231.03Q207.09 230.22 207.09 229.69Q207.09 230.22 207.02 230.89Q206.96 231.56 206.29 231.56M264.29 197.14L263.75 196.87Q263.21 196.60 262.81 197.14Q262.81 196.47 263.55 196.47Q264.29 196.47 264.29 197.14M248.48 233.03Q247.94 233.57 248.21 233.70Q248.35 233.84 248.48 233.84L248.48 234.37L248.48 235.18Q248.08 235.18 247.94 234.78Q247.81 234.64 247.81 234.37L247.81 233.84Q247.68 233.70 247.54 233.44Q247.27 232.90 247.81 232.50Q247.81 233.03 248.48 233.03M218.61 224.33L218.61 223.52L218.61 224.33M216.73 157.62Q216.73 158.16 216.60 158.22Q216.47 158.29 215.80 158.29Q215.93 158.29 216.20 158.16Q216.73 157.89 216.73 157.62M215.80 159.50Q215.80 160.16 215.73 160.37Q215.66 160.57 215.13 160.83Q215.13 160.57 215.46 160.37Q215.80 160.16 215.80 159.50M215.13 160.83L215.13 161.64L215.13 162.31Q214.46 162.31 214.79 161.91Q215.13 161.50 215.13 160.83M214.32 164.59L213.79 164.59L213.92 164.59L213.92 164.72Q213.92 164.99 213.79 164.99L213.79 165.79L212.98 165.79L213.38 165.39Q213.52 165.12 213.65 164.99Q213.79 164.85 213.79 164.59L214.32 164.59L214.32 164.59M212.58 172.49Q212.58 173.16 212.45 173.29Q212.31 173.43 211.64 173.96Q211.64 173.43 212.11 173.29Q212.58 173.16 212.58 172.49L212.58 172.49M212.58 167.67Q212.58 168.34 212.45 168.47Q212.31 168.60 211.64 169.01Q211.64 168.60 211.78 168.13Q211.91 167.67 212.58 167.67M211.11 231.16Q210.57 231.16 210.84 230.76Q210.97 230.62 211.11 230.36Q211.11 229.82 211.31 230.15Q211.51 230.49 211.11 231.16M210.30 172.49Q210.30 173.16 210.04 173.63Q209.77 174.10 209.77 174.63Q209.77 174.10 210.04 173.63Q210.30 173.16 210.30 172.49M206.29 201.29Q206.29 201.42 205.88 201.42Q205.75 201.42 205.62 201.29L206.29 201.29M195.30 224.86L195.30 225.53L194.77 225.53Q194.77 225.27 195.03 225.00Q195.17 224.86 195.30 224.86M193.43 230.36Q192.76 231.03 192.96 231.83Q193.16 232.63 192.49 233.03Q192.22 233.03 192.29 232.30Q192.35 231.56 192.09 231.56Q192.35 231.29 192.56 230.76Q192.76 230.22 193.43 229.69L193.43 230.36M272.46 220.71L272.46 221.65Q272.46 222.05 272.66 222.92Q272.86 223.79 272.86 224.86L272.86 225.53Q272.86 224.06 272.19 222.92Q271.52 221.78 271.52 220.31Q271.79 220.44 271.92 220.58Q272.06 220.71 271.52 220.71Q272.19 220.71 271.99 221.05Q271.79 221.38 272.46 220.71M272.46 235.58L271.52 235.58L271.52 236.52L271.52 235.18Q271.52 235.31 271.65 235.45Q271.79 235.58 272.46 235.58M217.94 160.83Q217.94 161.10 217.81 161.37Q217.67 161.64 217.54 161.91L217.14 162.31L217.14 162.98Q216.87 163.51 216.67 164.32Q216.47 165.12 215.80 165.79Q216.60 165.79 216.20 166.19Q216.06 166.33 215.80 166.46L215.80 167.26L215.13 167.67L215.13 168.47L215.13 169.01L214.32 169.01L214.32 169.81Q213.79 170.61 213.79 171.01Q213.65 171.42 213.79 171.68Q213.79 171.95 213.65 172.09Q213.38 172.49 212.98 172.49L212.98 171.68L213.79 171.68Q213.12 171.42 213.45 170.88Q213.79 170.35 213.79 169.81L214.32 169.01Q214.32 168.60 214.72 167.73Q215.13 166.86 215.13 165.79Q215.39 165.79 215.66 165.39Q215.80 165.26 215.80 164.99Q215.80 164.72 216.13 164.12Q216.47 163.51 215.80 162.98Q216.33 162.98 216.60 162.71Q216.73 162.58 216.73 162.31Q216.73 159.76 217.94 158.96Q217.40 158.56 217.27 158.69Q217.14 158.83 217.14 158.96Q217.81 157.89 217.94 157.28Q218.07 156.68 218.61 156.41Q218.61 156.15 218.21 155.74Q218.07 155.61 217.94 155.61L218.61 155.61Q218.61 154.00 218.94 153.20Q219.28 152.40 219.28 151.46Q218.74 152.13 218.61 152.86Q218.48 153.60 217.94 154.14Q218.48 152.66 219.14 150.99Q219.81 149.31 219.81 147.44Q220.48 148.38 220.15 149.78Q219.81 151.19 219.81 152.26Q219.14 153.74 219.81 155.61L219.28 155.61Q219.28 157.08 218.88 158.22Q218.48 159.36 217.94 160.83M207.09 198.48Q205.62 198.48 205.62 199.01Q204.95 198.61 204.81 198.01Q204.68 197.40 204.28 197.14Q204.68 196.47 204.48 196.00Q204.28 195.53 204.28 194.86Q205.35 195.53 205.15 196.33Q204.95 197.14 205.62 197.14Q205.62 197.40 206.02 197.60Q206.42 197.81 207.09 198.48Z" fill="#444444" style="fill: rgb(68, 68, 68);"></path></g><g id="SvgjsG13270" rel="mainfill" name="slogan_text" xmlns:name="slogan_text" transform="translate(-0.8199999928474426,-45.59016490511988)" fill="#444444"><path d="M0.82 228.45L0.82 240L10.62 240L10.62 237.69L3.13 237.69L3.13 228.45ZM20.69 240L20.69 228.45L18.38 228.45L18.38 240ZM34.79 240L34.79 230.76L38.80 230.76L38.80 228.45L28.44 228.45L28.44 230.76L32.48 230.76L32.48 240ZM48.86 240L48.86 235.40L54.62 235.40L54.62 240L56.91 240L56.91 228.45L54.62 228.45L54.62 233.09L48.86 233.09L48.86 228.45L46.55 228.45L46.55 240ZM65.16 228.45L65.16 238.86L66.30 240L74.38 240L75.52 238.86L75.52 228.45L73.22 228.45L73.22 237.69L67.47 237.69L67.47 228.45ZM85.91 234.24L85.91 233.09L88.20 230.76L91.67 230.76L91.67 234.24ZM85.91 240L85.91 236.55L91.67 236.55L91.67 240L93.96 240L93.96 228.45L87.05 228.45L83.60 231.93L83.60 240ZM112.57 240L112.57 228.45L110.27 228.45L110.27 236.14L104.52 228.45L102.21 228.45L102.21 240L104.52 240L104.52 232.30L110.27 240ZM123.12 240L123.12 228.45L120.81 228.45L120.81 240ZM133.52 234.24L133.52 233.09L135.81 230.76L139.27 230.76L139.27 234.24ZM133.52 240L133.52 236.55L139.27 236.55L139.27 240L141.57 240L141.57 228.45L134.65 228.45L131.21 231.93L131.21 240ZM160.17 240L160.17 228.45L157.88 228.45L157.88 236.14L152.12 228.45L149.81 228.45L149.81 240L152.12 240L152.12 232.30L157.88 240ZM183.93 240L183.93 228.45L181.62 228.45L181.62 240ZM198.03 240L198.03 230.76L202.04 230.76L202.04 228.45L191.68 228.45L191.68 230.76L195.72 230.76L195.72 240ZM225.13 234.24L225.13 233.09L227.43 230.76L230.89 230.76L230.89 234.24ZM225.13 240L225.13 236.55L230.89 236.55L230.89 240L233.18 240L233.18 228.45L226.27 228.45L222.82 231.93L222.82 240ZM250.65 240L251.79 238.86L251.79 236.55L249.50 236.55L249.50 237.69L243.74 237.69L243.74 230.76L249.50 230.76L249.50 231.92L251.79 231.92L251.79 229.62L250.65 228.45L242.57 228.45L241.43 229.62L241.43 238.86L242.57 240ZM262.02 234.24L262.02 233.09L264.31 230.76L267.78 230.76L267.78 234.24ZM262.02 240L262.02 236.55L267.78 236.55L267.78 240L270.07 240L270.07 228.45L263.16 228.45L259.71 231.93L259.71 240ZM288.68 231.92L285.23 228.45L278.32 228.45L278.32 240L287.54 240L288.68 238.86ZM286.38 237.69L280.63 237.69L280.63 230.76L284.07 230.76L286.38 233.07ZM306.56 240L306.56 237.69L299.07 237.69L299.07 235.40L305.98 235.40L305.98 233.09L299.07 233.09L299.07 230.76L306.56 230.76L306.56 228.45L296.76 228.45L296.76 240ZM316.95 240L316.95 232.21L320.03 236.65L321.96 236.65L324.98 232.21L324.98 240L327.29 240L327.29 228.45L325.06 228.45L320.97 234.05L316.95 228.45L314.64 228.45L314.64 240ZM337.85 240L337.85 228.45L335.54 228.45L335.54 240ZM355.90 240L355.90 237.69L348.41 237.69L348.41 235.40L355.32 235.40L355.32 233.09L348.41 233.09L348.41 230.76L355.90 230.76L355.90 228.45L346.10 228.45L346.10 240ZM373.20 240L374.34 238.86L374.34 234.23L373.20 233.07L366.29 233.07L366.29 230.76L372.04 230.76L372.04 231.92L374.34 231.92L374.34 229.62L373.20 228.45L365.12 228.45L363.98 229.62L363.98 234.57L365.12 235.40L372.04 235.40L372.04 237.69L366.29 237.69L366.29 236.55L363.98 236.55L363.98 238.86L365.12 240Z" fill="#444444" style="fill: rgb(68, 68, 68);"></path></g><g id="SvgjsG13271" rel="mainfill" name="symbol" xmlns:name="symbol_mainfill" transform="translate(149.5381802696078,-10.13197672777413) scale(0.744437250277495)" fill="#fec230"><g fill="#fec230"><path fill="#fec230" d="M71.62,59.237l-7.172,3.973c-4.41,2.441-9.407,3.734-14.45,3.734c-5.039,0-10.035-1.292-14.449-3.734   l-8.796-4.873c0.11,4.083-0.062,8.421-1.726,11.882c-0.459,0.945-1.377,1.8-1.36,2.936c0.02,1.576,1.812,1.842,3.102,1.602   c0,0,7.604-1.458,18.126,8.854c1.045,1.025,2.076,1.989,3.492,2.49c2.771,0.983,4.831-0.715,6.735-2.508   c1.296-1.219,2.741-2.277,4.193-3.306c3.486-2.463,7.91-5.56,12.351-5.635c0,0,5.729,1.25,2.396-4.062   C74.062,70.59,72.535,65.669,71.62,59.237" style="fill: rgb(254, 194, 48);"></path><polygon fill="" points="14.998,55.277 13.331,65.277 13.331,78.611 19.998,78.611 19.998,65.277 18.331,55.277    18.331,46.051 14.998,44.204  "></polygon><path fill="#fec230" d="M93.499,34.391L61.22,16.512c-6.986-3.869-15.456-3.869-22.438,0L6.498,34.391   c-1.998,1.108-1.998,3.996,0,5.106l8.5,4.706v-7.259h38.334v3.333H18.331v5.773l20.45,11.327c6.982,3.867,15.452,3.867,22.438,0   l32.279-17.879C95.501,38.387,95.501,35.5,93.499,34.391" style="fill: rgb(254, 194, 48);"></path></g></g></svg>